<?xml version="1.0" standalone="no"?>
 <!DOCTYPE svg PUBLIC "-//W3C//DTD SVG 1.1//EN" 
 "http://www.w3.org/Graphics/SVG/1.1/DTD/svg11.dtd"> 
<svg xmlns="http://www.w3.org/2000/svg" version="1.1" 
    width="14.8006cm" height="21.0007cm" viewBox="0 0 58270 82680 ">
<title>SVG Picture created as photodiode-F.Cu.svg date 2018/10/07 23:03:42 </title>
  <desc>Picture generated by PCBNEW </desc>
<g style="fill:#000000; fill-opacity:1;stroke:#000000; stroke-opacity:1;
stroke-linecap:round; stroke-linejoin:round; "
 transform="translate(0 0) scale(1 1)">
</g>
<g style="fill:#000000; fill-opacity:0.0; 
stroke:#000000; stroke-width:-0.000393701; stroke-opacity:1; 
stroke-linecap:round; stroke-linejoin:round;">
</g>
<g style="fill:#000000; fill-opacity:0.0; 
stroke:#000000; stroke-width:59.0551; stroke-opacity:1; 
stroke-linecap:round; stroke-linejoin:round;">
<path d="M44770 50500 A1000 1000 0.0 0 0 45770 49500 " />
<path d="M15770 49500 A1000 1000 0.0 0 0 16770 50500 " />
<path d="M16770 33000 A1000 1000 0.0 0 0 15770 34000 " />
<path d="M45770 34000 A1000 1000 0.0 0 0 44770 33000 " />
<path d="M45770 49500
L45770 34000
" />
<path d="M16770 50500
L44770 50500
" />
<path d="M15770 34000
L15770 49500
" />
<path d="M44770 33000
L16770 33000
" />
</g>
<g style="fill:#000000; fill-opacity:0.0; 
stroke:#000000; stroke-width:0; stroke-opacity:1; 
stroke-linecap:round; stroke-linejoin:round;">
</g>
<g style="fill:#000000; fill-opacity:1.0; 
stroke:#000000; stroke-width:0; stroke-opacity:1; 
stroke-linecap:round; stroke-linejoin:round;">
<polyline style="fill-rule:evenodd;"
points="25065,36309
24774,36309
24774,37254
25065,37254
25065,36309
" /> 
<polyline style="fill-rule:evenodd;"
points="25065,37845
24774,37845
24774,38790
25065,38790
25065,37845
" /> 
<polyline style="fill-rule:evenodd;"
points="25565,36309
25274,36309
25274,37254
25565,37254
25565,36309
" /> 
<polyline style="fill-rule:evenodd;"
points="25565,37845
25274,37845
25274,38790
25565,38790
25565,37845
" /> 
<polyline style="fill-rule:evenodd;"
points="26065,36309
25774,36309
25774,37254
26065,37254
26065,36309
" /> 
<polyline style="fill-rule:evenodd;"
points="26065,37845
25774,37845
25774,38790
26065,38790
26065,37845
" /> 
<polyline style="fill-rule:evenodd;"
points="26565,36309
26274,36309
26274,37254
26565,37254
26565,36309
" /> 
<polyline style="fill-rule:evenodd;"
points="26565,37845
26274,37845
26274,38790
26565,38790
26565,37845
" /> 
<polyline style="fill-rule:evenodd;"
points="27065,36309
26774,36309
26774,37254
27065,37254
27065,36309
" /> 
<polyline style="fill-rule:evenodd;"
points="27065,37845
26774,37845
26774,38790
27065,38790
27065,37845
" /> 
<polyline style="fill-rule:evenodd;"
points="32425,43801
32425,43644
32189,43644
32189,43801
32425,43801
" /> 
<polyline style="fill-rule:evenodd;"
points="32425,44057
32425,43900
32189,43900
32189,44057
32425,44057
" /> 
<polyline style="fill-rule:evenodd;"
points="32425,44313
32425,44156
32189,44156
32189,44313
32425,44313
" /> 
<polyline style="fill-rule:evenodd;"
points="32425,44569
32425,44412
32189,44412
32189,44569
32425,44569
" /> 
<polyline style="fill-rule:evenodd;"
points="32425,44825
32425,44667
32189,44667
32189,44825
32425,44825
" /> 
<polyline style="fill-rule:evenodd;"
points="32425,45081
32425,44923
32189,44923
32189,45081
32425,45081
" /> 
<polyline style="fill-rule:evenodd;"
points="32425,45337
32425,45179
32189,45179
32189,45337
32425,45337
" /> 
<polyline style="fill-rule:evenodd;"
points="32425,45593
32425,45435
32189,45435
32189,45593
32425,45593
" /> 
<polyline style="fill-rule:evenodd;"
points="31805,46055
31963,46055
31963,45819
31805,45819
31805,46055
" /> 
<polyline style="fill-rule:evenodd;"
points="31549,46055
31707,46055
31707,45819
31549,45819
31549,46055
" /> 
<polyline style="fill-rule:evenodd;"
points="31293,46055
31451,46055
31451,45819
31293,45819
31293,46055
" /> 
<polyline style="fill-rule:evenodd;"
points="31037,46055
31195,46055
31195,45819
31037,45819
31037,46055
" /> 
<polyline style="fill-rule:evenodd;"
points="30782,46055
30939,46055
30939,45819
30782,45819
30782,46055
" /> 
<polyline style="fill-rule:evenodd;"
points="30526,46055
30683,46055
30683,45819
30526,45819
30526,46055
" /> 
<polyline style="fill-rule:evenodd;"
points="30270,46055
30427,46055
30427,45819
30270,45819
30270,46055
" /> 
<polyline style="fill-rule:evenodd;"
points="30014,46055
30171,46055
30171,45819
30014,45819
30014,46055
" /> 
<polyline style="fill-rule:evenodd;"
points="29787,45593
29787,45435
29551,45435
29551,45593
29787,45593
" /> 
<polyline style="fill-rule:evenodd;"
points="29787,45337
29787,45179
29551,45179
29551,45337
29787,45337
" /> 
<polyline style="fill-rule:evenodd;"
points="29787,45081
29787,44923
29551,44923
29551,45081
29787,45081
" /> 
<polyline style="fill-rule:evenodd;"
points="29787,44825
29787,44667
29551,44667
29551,44825
29787,44825
" /> 
<polyline style="fill-rule:evenodd;"
points="29787,44569
29787,44412
29551,44412
29551,44569
29787,44569
" /> 
<polyline style="fill-rule:evenodd;"
points="29787,44313
29787,44156
29551,44156
29551,44313
29787,44313
" /> 
<polyline style="fill-rule:evenodd;"
points="29787,44057
29787,43900
29551,43900
29551,44057
29787,44057
" /> 
<polyline style="fill-rule:evenodd;"
points="29787,43801
29787,43644
29551,43644
29551,43801
29787,43801
" /> 
<polyline style="fill-rule:evenodd;"
points="30014,43417
30171,43417
30171,43181
30014,43181
30014,43417
" /> 
<polyline style="fill-rule:evenodd;"
points="30270,43417
30427,43417
30427,43181
30270,43181
30270,43417
" /> 
<polyline style="fill-rule:evenodd;"
points="30526,43417
30683,43417
30683,43181
30526,43181
30526,43417
" /> 
<polyline style="fill-rule:evenodd;"
points="30782,43417
30939,43417
30939,43181
30782,43181
30782,43417
" /> 
<polyline style="fill-rule:evenodd;"
points="31037,43417
31195,43417
31195,43181
31037,43181
31037,43417
" /> 
<polyline style="fill-rule:evenodd;"
points="31293,43417
31451,43417
31451,43181
31293,43181
31293,43417
" /> 
<polyline style="fill-rule:evenodd;"
points="31549,43417
31707,43417
31707,43181
31549,43181
31549,43417
" /> 
<polyline style="fill-rule:evenodd;"
points="31805,43417
31963,43417
31963,43181
31805,43181
31805,43417
" /> 
<polyline style="fill-rule:evenodd;"
points="30451,45693
30451,45156
29913,45156
29913,45693
30451,45693
" /> 
<polyline style="fill-rule:evenodd;"
points="30451,45156
30451,44618
29913,44618
29913,45156
30451,45156
" /> 
<polyline style="fill-rule:evenodd;"
points="30451,44618
30451,44081
29913,44081
29913,44618
30451,44618
" /> 
<polyline style="fill-rule:evenodd;"
points="30451,44081
30451,43543
29913,43543
29913,44081
30451,44081
" /> 
<polyline style="fill-rule:evenodd;"
points="30988,45693
30988,45156
30451,45156
30451,45693
30988,45693
" /> 
<polyline style="fill-rule:evenodd;"
points="30988,45156
30988,44618
30451,44618
30451,45156
30988,45156
" /> 
<polyline style="fill-rule:evenodd;"
points="30988,44618
30988,44081
30451,44081
30451,44618
30988,44618
" /> 
<polyline style="fill-rule:evenodd;"
points="30988,44081
30988,43543
30451,43543
30451,44081
30988,44081
" /> 
<polyline style="fill-rule:evenodd;"
points="31526,45693
31526,45156
30988,45156
30988,45693
31526,45693
" /> 
<polyline style="fill-rule:evenodd;"
points="31526,45156
31526,44618
30988,44618
30988,45156
31526,45156
" /> 
<polyline style="fill-rule:evenodd;"
points="31526,44618
31526,44081
30988,44081
30988,44618
31526,44618
" /> 
<polyline style="fill-rule:evenodd;"
points="31526,44081
31526,43543
30988,43543
30988,44081
31526,44081
" /> 
<polyline style="fill-rule:evenodd;"
points="32063,45693
32063,45156
31526,45156
31526,45693
32063,45693
" /> 
<polyline style="fill-rule:evenodd;"
points="32063,45156
32063,44618
31526,44618
31526,45156
32063,45156
" /> 
<polyline style="fill-rule:evenodd;"
points="32063,44618
32063,44081
31526,44081
31526,44618
32063,44618
" /> 
<polyline style="fill-rule:evenodd;"
points="32063,44081
32063,43543
31526,43543
31526,44081
32063,44081
" /> 
<polyline style="fill-rule:evenodd;"
points="31334,36694
31334,37088
31531,37088
31531,36694
31334,36694
" /> 
<polyline style="fill-rule:evenodd;"
points="31767,36694
31767,37088
31964,37088
31964,36694
31767,36694
" /> 
<polyline style="fill-rule:evenodd;"
points="32200,36694
32200,37088
32397,37088
32397,36694
32200,36694
" /> 
<polyline style="fill-rule:evenodd;"
points="32633,36694
32633,37088
32830,37088
32830,36694
32633,36694
" /> 
<polyline style="fill-rule:evenodd;"
points="33066,36694
33066,37088
33263,37088
33263,36694
33066,36694
" /> 
<polyline style="fill-rule:evenodd;"
points="33499,36694
33499,37088
33696,37088
33696,36694
33499,36694
" /> 
<polyline style="fill-rule:evenodd;"
points="33932,36694
33932,37088
34129,37088
34129,36694
33932,36694
" /> 
<polyline style="fill-rule:evenodd;"
points="34365,36694
34365,37088
34562,37088
34562,36694
34365,36694
" /> 
<polyline style="fill-rule:evenodd;"
points="30763,37606
30763,38547
31176,38547
31176,37606
30763,37606
" /> 
<polyline style="fill-rule:evenodd;"
points="35007,37874
35007,38181
35290,38181
35290,37874
35007,37874
" /> 
<polyline style="fill-rule:evenodd;"
points="34942,38314
34942,38740
35355,38740
35355,38314
34942,38314
" /> 
<polyline style="fill-rule:evenodd;"
points="34942,39238
34942,39710
35355,39710
35355,39238
34942,39238
" /> 
<polyline style="fill-rule:evenodd;"
points="30763,39013
30763,39486
31176,39486
31176,39013
30763,39013
" /> 
<polyline style="fill-rule:evenodd;"
points="31649,39631
31649,39848
32794,39848
32794,39631
31649,39631
" /> 
<polyline style="fill-rule:evenodd;"
points="33298,39631
33298,39848
34444,39848
34444,39631
33298,39631
" /> 
<polyline style="fill-rule:evenodd;"
points="20779,35842
20385,35842
20385,36925
20779,36925
20779,35842
" /> 
<polyline style="fill-rule:evenodd;"
points="20779,33574
20385,33574
20385,34657
20779,34657
20779,33574
" /> 
<polyline style="fill-rule:evenodd;"
points="22354,33574
21960,33574
21960,34657
22354,34657
22354,33574
" /> 
<polyline style="fill-rule:evenodd;"
points="22354,35842
21960,35842
21960,36925
22354,36925
22354,35842
" /> 
<polyline style="fill-rule:evenodd;"
points="38729,39703
38729,40196
39123,40196
39123,39703
38729,39703
" /> 
<polyline style="fill-rule:evenodd;"
points="39516,39703
39516,40196
39910,40196
39910,39703
39516,39703
" /> 
<polyline style="fill-rule:evenodd;"
points="38729,38753
38729,39246
39123,39246
39123,38753
38729,38753
" /> 
<polyline style="fill-rule:evenodd;"
points="39516,38753
39516,39246
39910,39246
39910,38753
39516,38753
" /> 
<polyline style="fill-rule:evenodd;"
points="39923,42790
40416,42790
40416,42396
39923,42396
39923,42790
" /> 
<polyline style="fill-rule:evenodd;"
points="39923,42003
40416,42003
40416,41609
39923,41609
39923,42003
" /> 
<polyline style="fill-rule:evenodd;"
points="31260,41896
31260,41403
30866,41403
30866,41896
31260,41896
" /> 
<polyline style="fill-rule:evenodd;"
points="30473,41896
30473,41403
30079,41403
30079,41896
30473,41896
" /> 
<polyline style="fill-rule:evenodd;"
points="31260,40996
31260,40503
30866,40503
30866,40996
31260,40996
" /> 
<polyline style="fill-rule:evenodd;"
points="30473,40996
30473,40503
30079,40503
30079,40996
30473,40996
" /> 
<polyline style="fill-rule:evenodd;"
points="22316,39759
21823,39759
21823,40153
22316,40153
22316,39759
" /> 
<polyline style="fill-rule:evenodd;"
points="22316,40546
21823,40546
21823,40940
22316,40940
22316,40546
" /> 
<polyline style="fill-rule:evenodd;"
points="28866,40015
28373,40015
28373,40409
28866,40409
28866,40015
" /> 
<polyline style="fill-rule:evenodd;"
points="28866,40803
28373,40803
28373,41196
28866,41196
28866,40803
" /> 
<polyline style="fill-rule:evenodd;"
points="37439,36586
37439,36113
36966,36113
36966,36586
37439,36586
" /> 
<polyline style="fill-rule:evenodd;"
points="36573,36586
36573,36113
36100,36113
36100,36586
36573,36586
" /> 
<polyline style="fill-rule:evenodd;"
points="24054,36751
23385,36751
23385,37106
24054,37106
24054,36751
" /> 
<polyline style="fill-rule:evenodd;"
points="24054,37893
23385,37893
23385,38248
24054,38248
24054,37893
" /> 
<polyline style="fill-rule:evenodd;"
points="22835,41298
23504,41298
23504,40943
22835,40943
22835,41298
" /> 
<polyline style="fill-rule:evenodd;"
points="22835,40156
23504,40156
23504,39801
22835,39801
22835,40156
" /> 
<polyline style="fill-rule:evenodd;"
points="37604,37901
36935,37901
36935,38256
37604,38256
37604,37901
" /> 
<polyline style="fill-rule:evenodd;"
points="37604,39043
36935,39043
36935,39398
37604,39398
37604,39043
" /> 
<polyline style="fill-rule:evenodd;"
points="33664,45451
34175,45451
34175,45293
33664,45293
33664,45451
" /> 
<polyline style="fill-rule:evenodd;"
points="33664,44978
34175,44978
34175,44821
33664,44821
33664,44978
" /> 
<polyline style="fill-rule:evenodd;"
points="33664,44506
34175,44506
34175,44348
33664,44348
33664,44506
" /> 
<polyline style="fill-rule:evenodd;"
points="41129,46106
41129,46893
42310,46893
42310,46106
41129,46106
" /> 
</g>
<g style="fill:#000000; fill-opacity:1.0; 
stroke:#000000; stroke-width:787.402; stroke-opacity:1; 
stroke-linecap:round; stroke-linejoin:round;">
</g>
<g style="fill:#000000; fill-opacity:0.0; 
stroke:#000000; stroke-width:787.402; stroke-opacity:1; 
stroke-linecap:round; stroke-linejoin:round;">
<path d="M41523 45500
L41916 45500
" />
<path d="M41523 44500
L41916 44500
" />
<path d="M41523 43500
L41916 43500
" />
<path d="M41523 42500
L41916 42500
" />
<path d="M41523 41500
L41916 41500
" />
<path d="M41523 40500
L41916 40500
" />
<path d="M41523 39500
L41916 39500
" />
</g>
<g style="fill:#000000; fill-opacity:0.0; 
stroke:#000000; stroke-width:0; stroke-opacity:1; 
stroke-linecap:round; stroke-linejoin:round;">
</g>
<g style="fill:#000000; fill-opacity:1.0; 
stroke:#000000; stroke-width:0; stroke-opacity:1; 
stroke-linecap:round; stroke-linejoin:round;">
<polyline style="fill-rule:evenodd;"
points="19177,46106
19177,46893
20358,46893
20358,46106
19177,46106
" /> 
</g>
<g style="fill:#000000; fill-opacity:1.0; 
stroke:#000000; stroke-width:787.402; stroke-opacity:1; 
stroke-linecap:round; stroke-linejoin:round;">
</g>
<g style="fill:#000000; fill-opacity:0.0; 
stroke:#000000; stroke-width:787.402; stroke-opacity:1; 
stroke-linecap:round; stroke-linejoin:round;">
<path d="M19571 45500
L19964 45500
" />
<path d="M19571 44500
L19964 44500
" />
<path d="M19571 43500
L19964 43500
" />
<path d="M19571 42500
L19964 42500
" />
<path d="M19571 41500
L19964 41500
" />
<path d="M19571 40500
L19964 40500
" />
<path d="M19571 39500
L19964 39500
" />
</g>
<g style="fill:#000000; fill-opacity:0.0; 
stroke:#000000; stroke-width:0; stroke-opacity:1; 
stroke-linecap:round; stroke-linejoin:round;">
</g>
<g style="fill:#000000; fill-opacity:1.0; 
stroke:#000000; stroke-width:0; stroke-opacity:1; 
stroke-linecap:round; stroke-linejoin:round;">
<polyline style="fill-rule:evenodd;"
points="37023,42448
37023,40951
36236,40951
36236,42448
37023,42448
" /> 
<polyline style="fill-rule:evenodd;"
points="39503,41995
39503,41404
38716,41404
38716,41995
39503,41995
" /> 
<polyline style="fill-rule:evenodd;"
points="39503,42900
39503,42310
38716,42310
38716,42900
39503,42900
" /> 
<polyline style="fill-rule:evenodd;"
points="39503,41089
39503,40499
38716,40499
38716,41089
39503,41089
" /> 
<polyline style="fill-rule:evenodd;"
points="23213,45809
22426,45809
22426,46990
23213,46990
23213,45809
" /> 
</g>
<g style="fill:#000000; fill-opacity:1.0; 
stroke:#000000; stroke-width:787.402; stroke-opacity:1; 
stroke-linecap:round; stroke-linejoin:round;">
</g>
<g style="fill:#000000; fill-opacity:0.0; 
stroke:#000000; stroke-width:787.402; stroke-opacity:1; 
stroke-linecap:round; stroke-linejoin:round;">
<path d="M23820 46203
L23820 46596
" />
<path d="M24820 46203
L24820 46596
" />
<path d="M25820 46203
L25820 46596
" />
</g>
<g style="fill:#000000; fill-opacity:0.0; 
stroke:#000000; stroke-width:0; stroke-opacity:1; 
stroke-linecap:round; stroke-linejoin:round;">
</g>
<g style="fill:#000000; fill-opacity:1.0; 
stroke:#000000; stroke-width:0; stroke-opacity:1; 
stroke-linecap:round; stroke-linejoin:round;">
<polyline style="fill-rule:evenodd;"
points="41426,37490
42213,37490
42213,36309
41426,36309
41426,37490
" /> 
</g>
<g style="fill:#000000; fill-opacity:1.0; 
stroke:#000000; stroke-width:787.402; stroke-opacity:1; 
stroke-linecap:round; stroke-linejoin:round;">
</g>
<g style="fill:#000000; fill-opacity:0.0; 
stroke:#000000; stroke-width:787.402; stroke-opacity:1; 
stroke-linecap:round; stroke-linejoin:round;">
<path d="M40820 37096
L40820 36703
" />
<path d="M39820 37096
L39820 36703
" />
<path d="M38820 37096
L38820 36703
" />
</g>
<g style="fill:#000000; fill-opacity:1.0; 
stroke:#000000; stroke-width:0; stroke-opacity:1; 
stroke-linecap:round; stroke-linejoin:round;">
<circle cx="40270" cy="39400" r="393.701" /> 
</g>
<g style="fill:#000000; fill-opacity:1.0; 
stroke:#000000; stroke-width:39.3701; stroke-opacity:1; 
stroke-linecap:round; stroke-linejoin:round;">
</g>
<g style="fill:#000000; fill-opacity:1.0; 
stroke:#000000; stroke-width:0; stroke-opacity:1; 
stroke-linecap:round; stroke-linejoin:round;">
<circle cx="25370" cy="42650" r="393.701" /> 
</g>
<g style="fill:#000000; fill-opacity:1.0; 
stroke:#000000; stroke-width:39.3701; stroke-opacity:1; 
stroke-linecap:round; stroke-linejoin:round;">
</g>
<g style="fill:#000000; fill-opacity:1.0; 
stroke:#000000; stroke-width:0; stroke-opacity:1; 
stroke-linecap:round; stroke-linejoin:round;">
<circle cx="43370" cy="37250" r="393.701" /> 
</g>
<g style="fill:#000000; fill-opacity:1.0; 
stroke:#000000; stroke-width:39.3701; stroke-opacity:1; 
stroke-linecap:round; stroke-linejoin:round;">
</g>
<g style="fill:#000000; fill-opacity:1.0; 
stroke:#000000; stroke-width:0; stroke-opacity:1; 
stroke-linecap:round; stroke-linejoin:round;">
<circle cx="28215.5" cy="37090.6" r="393.701" /> 
</g>
<g style="fill:#000000; fill-opacity:1.0; 
stroke:#000000; stroke-width:39.3701; stroke-opacity:1; 
stroke-linecap:round; stroke-linejoin:round;">
</g>
<g style="fill:#000000; fill-opacity:1.0; 
stroke:#000000; stroke-width:0; stroke-opacity:1; 
stroke-linecap:round; stroke-linejoin:round;">
<circle cx="43970" cy="38750" r="393.701" /> 
</g>
<g style="fill:#000000; fill-opacity:1.0; 
stroke:#000000; stroke-width:39.3701; stroke-opacity:1; 
stroke-linecap:round; stroke-linejoin:round;">
</g>
<g style="fill:#000000; fill-opacity:1.0; 
stroke:#000000; stroke-width:0; stroke-opacity:1; 
stroke-linecap:round; stroke-linejoin:round;">
<circle cx="40317.2" cy="46299.2" r="393.701" /> 
</g>
<g style="fill:#000000; fill-opacity:1.0; 
stroke:#000000; stroke-width:39.3701; stroke-opacity:1; 
stroke-linecap:round; stroke-linejoin:round;">
</g>
<g style="fill:#000000; fill-opacity:1.0; 
stroke:#000000; stroke-width:0; stroke-opacity:1; 
stroke-linecap:round; stroke-linejoin:round;">
<circle cx="34490.5" cy="46063" r="393.701" /> 
</g>
<g style="fill:#000000; fill-opacity:1.0; 
stroke:#000000; stroke-width:39.3701; stroke-opacity:1; 
stroke-linecap:round; stroke-linejoin:round;">
</g>
<g style="fill:#000000; fill-opacity:1.0; 
stroke:#000000; stroke-width:0; stroke-opacity:1; 
stroke-linecap:round; stroke-linejoin:round;">
<circle cx="31920" cy="41650" r="393.701" /> 
</g>
<g style="fill:#000000; fill-opacity:1.0; 
stroke:#000000; stroke-width:39.3701; stroke-opacity:1; 
stroke-linecap:round; stroke-linejoin:round;">
</g>
<g style="fill:#000000; fill-opacity:1.0; 
stroke:#000000; stroke-width:0; stroke-opacity:1; 
stroke-linecap:round; stroke-linejoin:round;">
<circle cx="34570" cy="43200" r="393.701" /> 
</g>
<g style="fill:#000000; fill-opacity:1.0; 
stroke:#000000; stroke-width:39.3701; stroke-opacity:1; 
stroke-linecap:round; stroke-linejoin:round;">
</g>
<g style="fill:#000000; fill-opacity:1.0; 
stroke:#000000; stroke-width:0; stroke-opacity:1; 
stroke-linecap:round; stroke-linejoin:round;">
<circle cx="21120" cy="39250" r="393.701" /> 
</g>
<g style="fill:#000000; fill-opacity:1.0; 
stroke:#000000; stroke-width:39.3701; stroke-opacity:1; 
stroke-linecap:round; stroke-linejoin:round;">
</g>
<g style="fill:#000000; fill-opacity:1.0; 
stroke:#000000; stroke-width:0; stroke-opacity:1; 
stroke-linecap:round; stroke-linejoin:round;">
<circle cx="33220" cy="40450" r="393.701" /> 
</g>
<g style="fill:#000000; fill-opacity:1.0; 
stroke:#000000; stroke-width:39.3701; stroke-opacity:1; 
stroke-linecap:round; stroke-linejoin:round;">
</g>
<g style="fill:#000000; fill-opacity:1.0; 
stroke:#000000; stroke-width:0; stroke-opacity:1; 
stroke-linecap:round; stroke-linejoin:round;">
<circle cx="27820" cy="38300" r="393.701" /> 
</g>
<g style="fill:#000000; fill-opacity:1.0; 
stroke:#000000; stroke-width:39.3701; stroke-opacity:1; 
stroke-linecap:round; stroke-linejoin:round;">
</g>
<g style="fill:#000000; fill-opacity:1.0; 
stroke:#000000; stroke-width:0; stroke-opacity:1; 
stroke-linecap:round; stroke-linejoin:round;">
<circle cx="38220" cy="39850" r="393.701" /> 
</g>
<g style="fill:#000000; fill-opacity:1.0; 
stroke:#000000; stroke-width:39.3701; stroke-opacity:1; 
stroke-linecap:round; stroke-linejoin:round;">
</g>
<g style="fill:#000000; fill-opacity:1.0; 
stroke:#000000; stroke-width:0; stroke-opacity:1; 
stroke-linecap:round; stroke-linejoin:round;">
<circle cx="23794.3" cy="44833.6" r="393.701" /> 
</g>
<g style="fill:#000000; fill-opacity:1.0; 
stroke:#000000; stroke-width:39.3701; stroke-opacity:1; 
stroke-linecap:round; stroke-linejoin:round;">
</g>
<g style="fill:#000000; fill-opacity:1.0; 
stroke:#000000; stroke-width:0; stroke-opacity:1; 
stroke-linecap:round; stroke-linejoin:round;">
<circle cx="24957.4" cy="44849.6" r="393.701" /> 
</g>
<g style="fill:#000000; fill-opacity:1.0; 
stroke:#000000; stroke-width:39.3701; stroke-opacity:1; 
stroke-linecap:round; stroke-linejoin:round;">
</g>
<g style="fill:#000000; fill-opacity:1.0; 
stroke:#000000; stroke-width:0; stroke-opacity:1; 
stroke-linecap:round; stroke-linejoin:round;">
<circle cx="37797.6" cy="43543.3" r="393.701" /> 
</g>
<g style="fill:#000000; fill-opacity:1.0; 
stroke:#000000; stroke-width:39.3701; stroke-opacity:1; 
stroke-linecap:round; stroke-linejoin:round;">
</g>
<g style="fill:#000000; fill-opacity:1.0; 
stroke:#000000; stroke-width:0; stroke-opacity:1; 
stroke-linecap:round; stroke-linejoin:round;">
<circle cx="37403.9" cy="44488.2" r="393.701" /> 
</g>
<g style="fill:#000000; fill-opacity:1.0; 
stroke:#000000; stroke-width:39.3701; stroke-opacity:1; 
stroke-linecap:round; stroke-linejoin:round;">
</g>
<g style="fill:#000000; fill-opacity:1.0; 
stroke:#000000; stroke-width:0; stroke-opacity:1; 
stroke-linecap:round; stroke-linejoin:round;">
<circle cx="24962.9" cy="40236.2" r="393.701" /> 
</g>
<g style="fill:#000000; fill-opacity:1.0; 
stroke:#000000; stroke-width:39.3701; stroke-opacity:1; 
stroke-linecap:round; stroke-linejoin:round;">
</g>
<g style="fill:#000000; fill-opacity:1.0; 
stroke:#000000; stroke-width:0; stroke-opacity:1; 
stroke-linecap:round; stroke-linejoin:round;">
<circle cx="27144.5" cy="42200.1" r="393.701" /> 
</g>
<g style="fill:#000000; fill-opacity:1.0; 
stroke:#000000; stroke-width:39.3701; stroke-opacity:1; 
stroke-linecap:round; stroke-linejoin:round;">
</g>
<g style="fill:#000000; fill-opacity:1.0; 
stroke:#000000; stroke-width:0; stroke-opacity:1; 
stroke-linecap:round; stroke-linejoin:round;">
<circle cx="26301.5" cy="39921.3" r="393.701" /> 
</g>
<g style="fill:#000000; fill-opacity:1.0; 
stroke:#000000; stroke-width:39.3701; stroke-opacity:1; 
stroke-linecap:round; stroke-linejoin:round;">
</g>
<g style="fill:#000000; fill-opacity:1.0; 
stroke:#000000; stroke-width:0; stroke-opacity:1; 
stroke-linecap:round; stroke-linejoin:round;">
<circle cx="26773.9" cy="45196.9" r="393.701" /> 
</g>
<g style="fill:#000000; fill-opacity:1.0; 
stroke:#000000; stroke-width:39.3701; stroke-opacity:1; 
stroke-linecap:round; stroke-linejoin:round;">
</g>
<g style="fill:#000000; fill-opacity:1.0; 
stroke:#000000; stroke-width:0; stroke-opacity:1; 
stroke-linecap:round; stroke-linejoin:round;">
<circle cx="35041.7" cy="36220.5" r="393.701" /> 
</g>
<g style="fill:#000000; fill-opacity:1.0; 
stroke:#000000; stroke-width:39.3701; stroke-opacity:1; 
stroke-linecap:round; stroke-linejoin:round;">
</g>
<g style="fill:#000000; fill-opacity:1.0; 
stroke:#000000; stroke-width:0; stroke-opacity:1; 
stroke-linecap:round; stroke-linejoin:round;">
<circle cx="35703.1" cy="45212.6" r="393.701" /> 
</g>
<g style="fill:#000000; fill-opacity:1.0; 
stroke:#000000; stroke-width:39.3701; stroke-opacity:1; 
stroke-linecap:round; stroke-linejoin:round;">
</g>
<g style="fill:#000000; fill-opacity:1.0; 
stroke:#000000; stroke-width:0; stroke-opacity:1; 
stroke-linecap:round; stroke-linejoin:round;">
<circle cx="30868.4" cy="47480.3" r="393.701" /> 
</g>
<g style="fill:#000000; fill-opacity:1.0; 
stroke:#000000; stroke-width:39.3701; stroke-opacity:1; 
stroke-linecap:round; stroke-linejoin:round;">
</g>
<g style="fill:#000000; fill-opacity:1.0; 
stroke:#000000; stroke-width:0; stroke-opacity:1; 
stroke-linecap:round; stroke-linejoin:round;">
<circle cx="36695.2" cy="37165.4" r="393.701" /> 
</g>
<g style="fill:#000000; fill-opacity:1.0; 
stroke:#000000; stroke-width:39.3701; stroke-opacity:1; 
stroke-linecap:round; stroke-linejoin:round;">
</g>
<g style="fill:#000000; fill-opacity:1.0; 
stroke:#000000; stroke-width:0; stroke-opacity:1; 
stroke-linecap:round; stroke-linejoin:round;">
<circle cx="29451.1" cy="46771.7" r="393.701" /> 
</g>
<g style="fill:#000000; fill-opacity:1.0; 
stroke:#000000; stroke-width:39.3701; stroke-opacity:1; 
stroke-linecap:round; stroke-linejoin:round;">
</g>
<g style="fill:#000000; fill-opacity:1.0; 
stroke:#000000; stroke-width:0; stroke-opacity:1; 
stroke-linecap:round; stroke-linejoin:round;">
<circle cx="32234.2" cy="35996.6" r="393.701" /> 
</g>
<g style="fill:#000000; fill-opacity:1.0; 
stroke:#000000; stroke-width:39.3701; stroke-opacity:1; 
stroke-linecap:round; stroke-linejoin:round;">
</g>
<g style="fill:#000000; fill-opacity:1.0; 
stroke:#000000; stroke-width:0; stroke-opacity:1; 
stroke-linecap:round; stroke-linejoin:round;">
<circle cx="29643.8" cy="37328.7" r="393.701" /> 
</g>
<g style="fill:#000000; fill-opacity:1.0; 
stroke:#000000; stroke-width:39.3701; stroke-opacity:1; 
stroke-linecap:round; stroke-linejoin:round;">
</g>
<g style="fill:#000000; fill-opacity:1.0; 
stroke:#000000; stroke-width:0; stroke-opacity:1; 
stroke-linecap:round; stroke-linejoin:round;">
<circle cx="28663.7" cy="46299.2" r="393.701" /> 
</g>
<g style="fill:#000000; fill-opacity:1.0; 
stroke:#000000; stroke-width:39.3701; stroke-opacity:1; 
stroke-linecap:round; stroke-linejoin:round;">
</g>
<g style="fill:#000000; fill-opacity:1.0; 
stroke:#000000; stroke-width:0; stroke-opacity:1; 
stroke-linecap:round; stroke-linejoin:round;">
<circle cx="33634.2" cy="36220.5" r="393.701" /> 
</g>
<g style="fill:#000000; fill-opacity:1.0; 
stroke:#000000; stroke-width:39.3701; stroke-opacity:1; 
stroke-linecap:round; stroke-linejoin:round;">
</g>
<g style="fill:#000000; fill-opacity:1.0; 
stroke:#000000; stroke-width:0; stroke-opacity:1; 
stroke-linecap:round; stroke-linejoin:round;">
<circle cx="27561.3" cy="47322.8" r="393.701" /> 
</g>
<g style="fill:#000000; fill-opacity:1.0; 
stroke:#000000; stroke-width:39.3701; stroke-opacity:1; 
stroke-linecap:round; stroke-linejoin:round;">
</g>
<g style="fill:#000000; fill-opacity:1.0; 
stroke:#000000; stroke-width:0; stroke-opacity:1; 
stroke-linecap:round; stroke-linejoin:round;">
<circle cx="30815.2" cy="42367.9" r="393.701" /> 
</g>
<g style="fill:#000000; fill-opacity:1.0; 
stroke:#000000; stroke-width:39.3701; stroke-opacity:1; 
stroke-linecap:round; stroke-linejoin:round;">
</g>
<g style="fill:#000000; fill-opacity:1.0; 
stroke:#000000; stroke-width:0; stroke-opacity:1; 
stroke-linecap:round; stroke-linejoin:round;">
<circle cx="35050.4" cy="37268.8" r="393.701" /> 
</g>
<g style="fill:#000000; fill-opacity:1.0; 
stroke:#000000; stroke-width:39.3701; stroke-opacity:1; 
stroke-linecap:round; stroke-linejoin:round;">
</g>
<g style="fill:#000000; fill-opacity:1.0; 
stroke:#000000; stroke-width:0; stroke-opacity:1; 
stroke-linecap:round; stroke-linejoin:round;">
<circle cx="40159.8" cy="44960.6" r="393.701" /> 
</g>
<g style="fill:#000000; fill-opacity:1.0; 
stroke:#000000; stroke-width:39.3701; stroke-opacity:1; 
stroke-linecap:round; stroke-linejoin:round;">
</g>
<g style="fill:#000000; fill-opacity:1.0; 
stroke:#000000; stroke-width:0; stroke-opacity:1; 
stroke-linecap:round; stroke-linejoin:round;">
<circle cx="32915.7" cy="46771.7" r="393.701" /> 
</g>
<g style="fill:#000000; fill-opacity:1.0; 
stroke:#000000; stroke-width:39.3701; stroke-opacity:1; 
stroke-linecap:round; stroke-linejoin:round;">
</g>
<g style="fill:#000000; fill-opacity:1.0; 
stroke:#000000; stroke-width:0; stroke-opacity:1; 
stroke-linecap:round; stroke-linejoin:round;">
<circle cx="36773.9" cy="46929.1" r="393.701" /> 
</g>
<g style="fill:#000000; fill-opacity:1.0; 
stroke:#000000; stroke-width:39.3701; stroke-opacity:1; 
stroke-linecap:round; stroke-linejoin:round;">
</g>
<g style="fill:#000000; fill-opacity:1.0; 
stroke:#000000; stroke-width:0; stroke-opacity:1; 
stroke-linecap:round; stroke-linejoin:round;">
<circle cx="33892" cy="46834.6" r="393.701" /> 
</g>
<g style="fill:#000000; fill-opacity:1.0; 
stroke:#000000; stroke-width:39.3701; stroke-opacity:1; 
stroke-linecap:round; stroke-linejoin:round;">
</g>
<g style="fill:#000000; fill-opacity:1.0; 
stroke:#000000; stroke-width:0; stroke-opacity:1; 
stroke-linecap:round; stroke-linejoin:round;">
<circle cx="36459" cy="46063" r="393.701" /> 
</g>
<g style="fill:#000000; fill-opacity:1.0; 
stroke:#000000; stroke-width:39.3701; stroke-opacity:1; 
stroke-linecap:round; stroke-linejoin:round;">
</g>
<g style="fill:#000000; fill-opacity:1.0; 
stroke:#000000; stroke-width:0; stroke-opacity:1; 
stroke-linecap:round; stroke-linejoin:round;">
<circle cx="39070" cy="45400" r="393.701" /> 
</g>
<g style="fill:#000000; fill-opacity:1.0; 
stroke:#000000; stroke-width:39.3701; stroke-opacity:1; 
stroke-linecap:round; stroke-linejoin:round;">
</g>
<g style="fill:#000000; fill-opacity:1.0; 
stroke:#000000; stroke-width:0; stroke-opacity:1; 
stroke-linecap:round; stroke-linejoin:round;">
<circle cx="40220" cy="43750" r="393.701" /> 
</g>
<g style="fill:#000000; fill-opacity:1.0; 
stroke:#000000; stroke-width:39.3701; stroke-opacity:1; 
stroke-linecap:round; stroke-linejoin:round;">
</g>
<g style="fill:#000000; fill-opacity:1.0; 
stroke:#000000; stroke-width:0; stroke-opacity:1; 
stroke-linecap:round; stroke-linejoin:round;">
<circle cx="39220" cy="43800" r="393.701" /> 
</g>
<g style="fill:#000000; fill-opacity:1.0; 
stroke:#000000; stroke-width:39.3701; stroke-opacity:1; 
stroke-linecap:round; stroke-linejoin:round;">
</g>
<g style="fill:#000000; fill-opacity:1.0; 
stroke:#000000; stroke-width:0; stroke-opacity:1; 
stroke-linecap:round; stroke-linejoin:round;">
<circle cx="39718.4" cy="47401.6" r="393.701" /> 
</g>
<g style="fill:#000000; fill-opacity:1.0; 
stroke:#000000; stroke-width:39.3701; stroke-opacity:1; 
stroke-linecap:round; stroke-linejoin:round;">
</g>
<g style="fill:#000000; fill-opacity:1.0; 
stroke:#000000; stroke-width:177.165; stroke-opacity:1; 
stroke-linecap:round; stroke-linejoin:round;">
</g>
<g style="fill:#000000; fill-opacity:0.0; 
stroke:#000000; stroke-width:177.165; stroke-opacity:1; 
stroke-linecap:round; stroke-linejoin:round;">
<path d="M30348 43299
L30348 42778
" />
<path d="M31372 43299
L31372 43002
" />
<path d="M30093 45937
L30093 46515
" />
<path d="M30860 45937
L30860 46790
" />
<path d="M31116 45937
L31116 46796
" />
<path d="M31372 45937
L31372 46797
" />
<path d="M29669 44746
L27573 44746
" />
<path d="M29669 43978
L26841 43978
" />
<path d="M29669 43723
L26943 43723
" />
<path d="M39876 41806
L39770 41700
" />
<path d="M39770 41700
L39110 41700
" />
<path d="M40170 41806
L39876 41806
" />
<path d="M39713 39400
L39713 39950
" />
<path d="M39713 39000
L39713 39400
" />
<path d="M39713 39400
L40270 39400
" />
<path d="M34370 44900
L33920 44900
" />
</g>
<g style="fill:#000000; fill-opacity:0.0; 
stroke:#000000; stroke-width:118.11; stroke-opacity:1; 
stroke-linecap:round; stroke-linejoin:round;">
<path d="M34870 45400
L35277 45807
" />
</g>
<g style="fill:#000000; fill-opacity:0.0; 
stroke:#000000; stroke-width:177.165; stroke-opacity:1; 
stroke-linecap:round; stroke-linejoin:round;">
<path d="M34670 44900
L34870 45100
" />
<path d="M34870 45100
L34870 45400
" />
<path d="M34370 44900
L34670 44900
" />
</g>
<g style="fill:#000000; fill-opacity:0.0; 
stroke:#000000; stroke-width:118.11; stroke-opacity:1; 
stroke-linecap:round; stroke-linejoin:round;">
<path d="M34683 47366
L32407 47366
" />
<path d="M35277 45807
L35277 46771
" />
<path d="M35277 46771
L34683 47366
" />
<path d="M32407 47366
L32285 47244
" />
<path d="M32285 47244
L32285 45915
" />
<path d="M32285 45915
L31794 45424
" />
</g>
<g style="fill:#000000; fill-opacity:0.0; 
stroke:#000000; stroke-width:177.165; stroke-opacity:1; 
stroke-linecap:round; stroke-linejoin:round;">
<path d="M28620 41000
L27870 41000
" />
<path d="M25470 42650
L25370 42650
" />
<path d="M27870 41000
L27870 41050
" />
<path d="M27870 41050
L27670 41250
" />
<path d="M27670 41250
L26870 41250
" />
<path d="M26870 41250
L25470 42650
" />
</g>
<g style="fill:#000000; fill-opacity:0.0; 
stroke:#000000; stroke-width:118.11; stroke-opacity:1; 
stroke-linecap:round; stroke-linejoin:round;">
<path d="M26079 43359
L25763 43043
" />
<path d="M25763 43043
L25370 42650
" />
<path d="M29729 43359
L26079 43359
" />
<path d="M30182 43812
L29729 43359
" />
</g>
<g style="fill:#000000; fill-opacity:0.0; 
stroke:#000000; stroke-width:177.165; stroke-opacity:1; 
stroke-linecap:round; stroke-linejoin:round;">
<path d="M39763 39950
L39763 39900
" />
<path d="M28609 37484
L28215 37090
" />
<path d="M30970 39250
L30374 39250
" />
<path d="M30374 39250
L28609 37484
" />
<path d="M37270 39220
L37427 39220
" />
<path d="M37427 39220
L38144 38503
" />
<path d="M40893 38503
L41039 38650
" />
<path d="M38144 38503
L40893 38503
" />
<path d="M41039 38650
L42668 38650
" />
<path d="M42668 38650
L42915 38897
" />
<path d="M24175 41475
L23345 41475
" />
<path d="M23345 41475
L23170 41300
" />
<path d="M23170 41300
L23170 41120
" />
<path d="M40170 42593
L39121 42593
" />
<path d="M39121 42593
L39110 42605
" />
<path d="M37270 39220
L37270 40300
" />
<path d="M37270 40300
L37370 40300
" />
<path d="M37370 40300
L38156 41086
" />
<path d="M38156 41086
L38156 42436
" />
<path d="M38156 42436
L38325 42605
" />
<path d="M38325 42605
L39110 42605
" />
<path d="M37270 39220
L37149 39220
" />
<path d="M37149 39220
L36270 40100
" />
<path d="M36270 40100
L35830 40100
" />
<path d="M35830 40100
L34805 41124
" />
<path d="M34805 41124
L32445 41124
" />
<path d="M32445 41124
L32120 41450
" />
<path d="M32120 41450
L31920 41650
" />
<path d="M23720 36929
L23208 36929
" />
<path d="M23208 36929
L22915 37221
" />
<path d="M22915 37221
L22915 38661
" />
<path d="M22915 38661
L23104 38850
" />
<path d="M23104 38850
L23812 38850
" />
<path d="M23812 38850
L24175 39212
" />
<path d="M24175 39212
L24175 41475
" />
<path d="M32307 45002
L32772 45002
" />
<path d="M32772 45002
L33832 46062
" />
<path d="M33832 46062
L33933 46062
" />
<path d="M33933 46062
L34490 46062
" />
<path d="M26603 40800
L25928 41475
" />
<path d="M27770 40250
L27220 40800
" />
<path d="M27220 40800
L26603 40800
" />
<path d="M28620 40212
L27770 40212
" />
<path d="M27770 40212
L27770 40250
" />
<path d="M24647 41475
L24175 41475
" />
<path d="M25928 41475
L24647 41475
" />
<path d="M43413 38750
L43970 38750
" />
<path d="M43063 38750
L43413 38750
" />
<path d="M42915 38897
L43063 38750
" />
<path d="M31376 41962
L31063 41650
" />
<path d="M31376 42631
L31376 41962
" />
<path d="M31114 42893
L31376 42631
" />
<path d="M31114 43297
L31114 42893
" />
<path d="M31116 43299
L31114 43297
" />
<path d="M37088 38685
L37270 38866
" />
<path d="M36434 38558
L36561 38685
" />
<path d="M36561 38685
L37088 38685
" />
<path d="M35703 37299
L36434 38031
" />
<path d="M36434 38031
L36434 38558
" />
<path d="M42915 38897
L42994 38976
" />
<path d="M42994 38976
L42994 47007
" />
<path d="M40474 47322
L40474 46456
" />
<path d="M42994 47007
L42443 47559
" />
<path d="M42443 47559
L40710 47559
" />
<path d="M40710 47559
L40474 47322
" />
<path d="M40474 46456
L40317 46299
" />
<path d="M33164 36891
L33151 36878
" />
<path d="M33151 36878
L33151 36535
" />
<path d="M35310 35659
L35703 36051
" />
<path d="M35703 36051
L35703 37299
" />
<path d="M33151 36535
L32994 36377
" />
<path d="M32994 36377
L32994 36020
" />
<path d="M32994 36020
L33355 35659
" />
<path d="M33355 35659
L35310 35659
" />
<path d="M37270 38866
L37270 39220
" />
<path d="M31063 40750
L31063 40326
" />
<path d="M31063 40326
L30832 40095
" />
<path d="M30832 40095
L29674 40095
" />
<path d="M29674 40095
L29557 40212
" />
<path d="M29557 40212
L28620 40212
" />
<path d="M31920 41650
L31063 41650
" />
<path d="M31063 41650
L31063 40750
" />
<path d="M31113 43296
L31116 43299
" />
<path d="M24487 36782
L24340 36929
" />
<path d="M24340 36929
L23720 36929
" />
<path d="M24920 36782
L24487 36782
" />
<path d="M34335 43230
L34539 43230
" />
<path d="M33962 43200
L34013 43200
" />
<path d="M33183 43978
L33962 43200
" />
<path d="M34013 43200
L34570 43200
" />
<path d="M34539 43230
L34570 43200
" />
<path d="M32307 43978
L33183 43978
" />
<path d="M22570 39000
L22170 38600
" />
<path d="M22157 36383
L22157 38587
" />
<path d="M22157 38587
L22170 38600
" />
<path d="M22157 34116
L22157 34834
" />
<path d="M22157 34834
L22157 36383
" />
<path d="M21676 39250
L21120 39250
" />
<path d="M22320 39250
L21676 39250
" />
<path d="M22570 39000
L22320 39250
" />
<path d="M32663 40450
L33220 40450
" />
<path d="M31725 40450
L32663 40450
" />
<path d="M31040 39765
L31725 40450
" />
<path d="M29285 39765
L31040 39765
" />
<path d="M27820 38300
L29285 39765
" />
<path d="M23170 39979
L22092 39979
" />
<path d="M22092 39979
L22070 39956
" />
<path d="M23170 39600
L22570 39000
" />
<path d="M26920 38317
L27802 38317
" />
<path d="M27802 38317
L27820 38300
" />
<path d="M23170 39979
L23170 39600
" />
</g>
<g style="fill:#000000; fill-opacity:0.0; 
stroke:#000000; stroke-width:314.961; stroke-opacity:1; 
stroke-linecap:round; stroke-linejoin:round;">
<path d="M38926 39950
L38926 40610
" />
<path d="M38926 40610
L39110 40794
" />
<path d="M38926 39950
L38319 39950
" />
<path d="M38319 39950
L38220 39850
" />
<path d="M38220 39850
L38220 39400
" />
<path d="M38220 39400
L38620 39000
" />
<path d="M38620 39000
L38926 39000
" />
</g>
<g style="fill:#000000; fill-opacity:0.0; 
stroke:#000000; stroke-width:177.165; stroke-opacity:1; 
stroke-linecap:round; stroke-linejoin:round;">
<path d="M29669 44234
L24035 44234
" />
<path d="M24035 44234
L23870 44400
" />
<path d="M23870 44400
L23870 44757
" />
<path d="M23870 44757
L23794 44833
" />
<path d="M29669 44490
L26279 44490
" />
<path d="M26279 44490
L25920 44849
" />
<path d="M25920 44849
L24957 44849
" />
<path d="M37162 43543
L37240 43543
" />
<path d="M35297 41678
L37162 43543
" />
<path d="M32270 42362
L32953 41678
" />
<path d="M31813 42362
L32270 42362
" />
<path d="M32953 41678
L35297 41678
" />
<path d="M31632 42543
L31813 42362
" />
<path d="M31628 42746
L31632 42743
" />
<path d="M31628 43299
L31628 42746
" />
<path d="M37240 43543
L37797 43543
" />
<path d="M31632 42743
L31632 42543
" />
<path d="M31884 43299
L31884 42842
" />
<path d="M31884 42842
L32049 42677
" />
<path d="M32049 42677
L32521 42677
" />
<path d="M32521 42677
L33073 42125
" />
<path d="M33073 42125
L35041 42125
" />
<path d="M35041 42125
L37010 44094
" />
<path d="M37010 44094
L37403 44488
" />
<path d="M24920 40193
L24962 40236
" />
<path d="M24920 38317
L24920 40193
" />
<path d="M27701 42200
L27144 42200
" />
<path d="M30093 43299
L30093 43260
" />
<path d="M30093 43260
L29032 42200
" />
<path d="M29032 42200
L27701 42200
" />
<path d="M24637 38317
L24390 38070
" />
<path d="M24390 38070
L23720 38070
" />
<path d="M24920 38317
L24637 38317
" />
<path d="M29669 45002
L27525 45002
" />
<path d="M27525 45002
L27330 45196
" />
<path d="M27330 45196
L26773 45196
" />
<path d="M25420 38317
L25420 39354
" />
<path d="M25420 39354
L25592 39527
" />
<path d="M25592 39527
L25907 39527
" />
<path d="M25907 39527
L26301 39921
" />
<path d="M31884 45937
L31884 47315
" />
<path d="M35703 45769
L35703 45212
" />
<path d="M31884 47315
L32469 47900
" />
<path d="M32469 47900
L35170 47900
" />
<path d="M35170 47900
L35703 47366
" />
<path d="M35703 47366
L35703 45769
" />
<path d="M34031 36891
L34031 36679
" />
<path d="M34031 36679
L34490 36220
" />
<path d="M34490 36220
L35041 36220
" />
<path d="M30604 47216
L30868 47480
" />
<path d="M30604 45937
L30604 47216
" />
<path d="M36336 36350
L36336 36807
" />
<path d="M36399 36870
L36695 37165
" />
<path d="M36336 36807
L36399 36870
" />
<path d="M30348 45937
L30348 46661
" />
<path d="M30238 46771
L29451 46771
" />
<path d="M30348 46661
L30238 46771
" />
<path d="M32731 36891
L32731 36666
" />
<path d="M32731 36666
L32600 36535
" />
<path d="M32600 36535
L32600 36220
" />
<path d="M32600 36220
L32376 35996
" />
<path d="M32376 35996
L32234 35996
" />
<path d="M31865 36891
L31865 36587
" />
<path d="M31865 36587
L31616 36338
" />
<path d="M31616 36338
L30638 36338
" />
<path d="M30638 36338
L30042 36934
" />
<path d="M30042 36934
L30037 36934
" />
<path d="M30037 36934
L29643 37328
" />
<path d="M28663 46299
L28663 45616
" />
<path d="M28663 45616
L28765 45514
" />
<path d="M28765 45514
L29669 45514
" />
<path d="M27561 47322
L27561 45858
" />
<path d="M27561 45858
L28161 45258
" />
<path d="M28161 45258
L29669 45258
" />
<path d="M33597 36256
L33634 36220
" />
<path d="M33597 36891
L33597 36256
" />
<path d="M37218 36350
L37561 36692
" />
<path d="M37561 36692
L37561 37433
" />
<path d="M37561 37433
L37270 37724
" />
<path d="M37270 37724
L37270 38079
" />
</g>
<g style="fill:#000000; fill-opacity:0.0; 
stroke:#000000; stroke-width:118.11; stroke-opacity:1; 
stroke-linecap:round; stroke-linejoin:round;">
<path d="M37203 36350
L37218 36350
" />
<path d="M37427 38079
L37270 38079
" />
<path d="M37482 38024
L37427 38079
" />
</g>
<g style="fill:#000000; fill-opacity:0.0; 
stroke:#000000; stroke-width:177.165; stroke-opacity:1; 
stroke-linecap:round; stroke-linejoin:round;">
<path d="M32307 44490
L33479 44490
" />
<path d="M33479 44490
L33542 44427
" />
<path d="M33542 44427
L33920 44427
" />
<path d="M33542 45372
L32916 44746
" />
<path d="M33920 45372
L33542 45372
" />
<path d="M32916 44746
L32602 44746
" />
<path d="M32602 44746
L32307 44746
" />
<path d="M30604 43299
L30604 42578
" />
<path d="M30604 42578
L30815 42367
" />
<path d="M35149 37367
L35050 37268
" />
<path d="M35149 38027
L35149 37367
" />
<path d="M32307 45514
L32484 45514
" />
<path d="M32484 45514
L32915 45945
" />
<path d="M32915 45945
L32915 46214
" />
<path d="M32915 46214
L32915 46771
" />
<path d="M40159 45517
L40159 44960
" />
<path d="M38748 46929
L40159 45517
" />
<path d="M36773 46929
L38748 46929
" />
<path d="M33892 46547
L33892 46834
" />
<path d="M32602 45258
L33892 46547
" />
<path d="M32307 45258
L32602 45258
" />
<path d="M38407 46062
L37015 46062
" />
<path d="M39070 45400
L38407 46062
" />
<path d="M37015 46062
L36458 46062
" />
<path d="M39826 44143
L40220 43750
" />
<path d="M32307 44234
L33363 44234
" />
<path d="M39508 44461
L39826 44143
" />
<path d="M39058 44461
L39508 44461
" />
<path d="M37920 45600
L39058 44461
" />
<path d="M35323 44015
L36908 45600
" />
<path d="M33583 44015
L35323 44015
" />
<path d="M33363 44234
L33583 44015
" />
<path d="M36908 45600
L37920 45600
" />
<path d="M32307 43723
L32893 43723
" />
<path d="M32893 43723
L34096 42519
" />
<path d="M34096 42519
L34839 42519
" />
<path d="M34839 42519
L36301 43981
" />
<path d="M36301 43981
L36301 44525
" />
<path d="M36301 44525
L37075 45300
" />
<path d="M37075 45300
L37720 45300
" />
<path d="M37720 45300
L38826 44193
" />
<path d="M38826 44193
L39220 43800
" />
<path d="M31628 45937
L31628 47758
" />
<path d="M31628 47758
L32420 48550
" />
<path d="M32420 48550
L39170 48550
" />
<path d="M39170 48550
L39718 48001
" />
<path d="M39718 48001
L39718 47401
" />
</g>
<g style="fill:#000000; fill-opacity:1.0; 
stroke:#000000; stroke-width:100; stroke-opacity:1; 
stroke-linecap:round; stroke-linejoin:round;">
<polyline style="fill-rule:evenodd;"
points="16496,33339
16264,33494
16109,33726
16049,34027
16049,49472
16109,49773
16264,50005
16496,50160
16797,50220
44742,50220
45043,50160
45275,50005
45430,49773
45490,49472
45490,48705
45307,48705
45149,49086
44858,49378
44477,49537
44064,49537
43683,49379
43508,49205
18307,49205
18149,49586
17858,49878
17477,50037
17064,50037
16683,49879
16391,49588
16232,49207
16232,48794
16390,48413
16681,48121
17062,47962
17475,47962
17856,48120
18148,48411
18307,48792
18307,49205
43508,49205
43391,49088
43232,48707
43232,48294
43390,47913
43681,47621
44062,47462
44475,47462
44856,47620
45148,47911
45307,48292
45307,48705
45490,48705
45490,38877
44613,38877
44516,39114
44335,39295
44098,39393
43842,39393
43605,39296
43424,39115
43413,39088
43332,39088
43332,47007
43307,47137
43234,47246
43233,47247
42682,47798
42572,47871
42443,47897
40710,47897
40581,47871
40471,47798
40315,47642
40264,47765
40083,47946
40057,47957
40057,48001
40031,48131
39977,48211
39957,48240
39409,48789
39409,48789
39299,48862
39170,48888
32420,48888
32290,48862
32180,48789
31389,47997
31337,47921
31233,48025
30997,48123
30740,48124
30504,48026
30323,47845
30224,47608
30224,47352
30271,47240
30266,47216
30266,47104
30238,47110
30007,47110
29997,47135
29816,47317
29579,47415
29323,47415
29086,47317
28905,47136
28820,46931
28792,46942
28536,46943
28299,46845
28118,46664
28020,46427
28019,46171
28117,45935
28298,45753
28325,45742
28325,45616
28328,45597
28301,45597
27899,45998
27899,46766
27925,46776
28106,46957
28204,47194
28205,47450
28107,47686
27926,47868
27689,47966
27433,47966
27197,47868
27015,47687
26917,47451
26917,47195
27015,46958
27196,46777
27222,46766
27222,46186
26463,46186
26463,46613
26414,46859
26275,47068
26066,47208
25820,47257
25573,47208
25364,47068
25314,46992
25239,47087
25020,47210
24969,47222
24870,47175
24870,46450
24877,46450
24877,46350
24870,46350
24870,45624
24770,45624
24770,46350
24762,46350
24762,46450
24770,46450
24770,47175
24670,47222
24619,47210
24400,47087
24325,46992
24275,47068
24066,47208
23820,47257
23573,47208
23433,47114
23425,47132
23355,47202
23263,47240
22932,47240
22870,47178
22870,46450
22770,46450
22770,47178
22707,47240
22376,47240
22284,47202
22214,47132
22176,47040
22176,46512
22238,46450
22770,46450
22870,46450
22877,46450
22877,46350
22870,46350
22870,45621
22770,45621
22770,46350
22238,46350
22176,46287
22176,45759
22214,45667
22284,45597
22376,45559
22707,45559
22770,45621
22870,45621
22932,45559
23263,45559
23355,45597
23425,45667
23433,45685
23573,45591
23820,45542
24066,45591
24275,45731
24325,45807
24400,45712
24619,45589
24670,45577
24770,45624
24870,45624
24969,45577
25020,45589
25239,45712
25314,45807
25364,45731
25573,45591
25820,45542
26066,45591
26275,45731
26414,45940
26463,46186
27222,46186
27222,45858
27222,45858
27248,45729
27321,45619
27424,45516
27330,45535
27330,45535
27319,45561
27139,45742
26902,45840
26646,45840
26409,45742
26228,45561
26130,45325
26130,45108
26049,45162
25920,45188
25920,45188
25513,45188
25503,45213
25322,45394
25086,45493
24829,45493
24593,45395
24412,45214
24372,45119
24340,45197
24159,45379
23922,45477
23666,45477
23430,45379
23248,45198
23150,44962
23150,44706
23248,44469
23429,44288
23589,44221
23630,44160
23795,43995
23816,43981
23905,43922
24035,43896
26518,43896
26528,43849
26601,43739
26607,43735
26604,43723
26630,43593
26703,43483
26813,43410
26943,43384
29669,43384
29694,43389
29714,43389
29729,43375
28892,42538
27701,42538
27690,42564
27509,42745
27273,42843
27017,42843
26780,42746
26599,42565
26500,42328
26500,42072
26598,41835
26779,41654
27015,41556
27272,41556
27508,41654
27689,41834
27700,41861
29032,41861
29162,41887
29249,41945
29272,41960
30023,42712
30036,42649
30109,42539
30172,42497
30171,42496
30171,42240
30226,42107
30226,42083
30163,42146
30029,42146
29937,42108
29867,42037
29829,41945
29829,41762
29891,41700
30226,41700
30226,41707
30326,41707
30326,41700
30334,41700
30334,41600
30326,41600
30326,41216
30342,41200
30326,41183
30326,40800
30226,40800
30226,41183
30209,41200
30226,41216
30226,41600
29891,41600
29829,41537
29829,41354
29867,41262
29929,41200
29867,41137
29857,41112
29116,41112
29116,41246
29078,41338
29007,41408
28915,41446
28732,41446
28670,41384
28670,41050
28570,41050
28570,41384
28507,41446
28324,41446
28232,41408
28161,41338
28123,41246
28123,41112
28186,41050
28570,41050
28670,41050
29053,41050
29116,41112
29857,41112
29829,41045
29829,40862
29891,40800
30226,40800
30326,40800
30334,40800
30334,40700
30326,40700
30326,40692
30226,40692
30226,40700
29891,40700
29829,40637
29829,40454
29837,40434
29814,40434
29796,40452
29686,40525
29557,40551
29071,40551
29048,40587
29021,40605
29078,40661
29116,40753
29116,40887
29053,40950
28670,40950
28670,40942
28570,40942
28570,40950
28186,40950
28123,40887
28123,40753
28161,40661
28217,40605
28196,40592
28168,40551
27947,40551
27459,41039
27349,41112
27220,41138
26744,41138
26168,41714
26058,41788
25928,41813
23345,41813
23215,41788
23105,41714
22944,41552
22835,41552
22742,41535
22657,41480
22600,41397
22580,41298
22580,40943
22596,40856
22566,40856
22566,40990
22528,41082
22457,41152
22365,41190
22182,41190
22120,41128
22120,40793
22020,40793
22020,41128
21957,41190
21774,41190
21682,41152
21611,41082
21573,40990
21573,40856
21636,40793
22020,40793
22120,40793
22503,40793
22566,40856
22596,40856
22597,40851
22652,40765
22736,40708
22835,40688
23504,40688
23597,40706
23682,40760
23739,40844
23759,40943
23759,41136
23836,41136
23836,39352
23672,39188
23237,39188
23409,39360
23482,39470
23498,39547
23504,39547
23597,39564
23682,39619
23739,39702
23759,39801
23759,40156
23742,40248
23687,40334
23603,40391
23504,40411
22835,40411
22742,40393
22657,40339
22643,40317
22507,40317
22498,40330
22471,40349
22528,40405
22566,40497
22566,40631
22503,40693
22120,40693
22120,40685
22020,40685
22020,40693
21636,40693
21573,40631
21573,40497
21611,40405
21667,40349
21646,40335
21589,40252
21569,40153
21569,39759
21580,39700
21485,39795
21248,39893
20992,39893
20755,39796
20597,39638
20576,39746
20436,39955
20369,40000
20436,40044
20576,40253
20625,40500
20576,40746
20436,40955
20369,41000
20436,41044
20576,41253
20625,41500
20576,41746
20436,41955
20369,42000
20436,42044
20576,42253
20625,42500
20576,42746
20436,42955
20369,43000
20436,43044
20576,43253
20625,43500
20576,43746
20436,43955
20369,44000
20436,44044
20576,44253
20625,44500
20576,44746
20436,44955
20369,45000
20436,45044
20576,45253
20625,45500
20576,45746
20481,45888
20536,45923
20593,46007
20613,46106
20613,46893
20596,46986
20541,47071
20457,47128
20358,47148
19177,47148
19084,47131
18999,47076
18942,46992
18922,46893
18922,46106
18939,46013
18994,45928
19054,45887
18959,45746
18910,45500
18959,45253
19099,45044
19166,45000
19099,44955
18959,44746
18910,44500
18959,44253
19099,44044
19166,44000
19099,43955
18959,43746
18910,43500
18959,43253
19099,43044
19166,43000
19099,42955
18959,42746
18910,42500
18959,42253
19099,42044
19166,42000
19099,41955
18959,41746
18910,41500
18959,41253
19099,41044
19166,41000
19099,40955
18959,40746
18910,40500
18959,40253
19099,40044
19166,40000
19099,39955
18959,39746
18910,39500
18959,39253
19099,39044
19308,38905
19554,38856
19981,38856
20227,38905
20436,39044
20480,39111
20573,38885
20754,38704
20991,38606
21247,38606
21484,38703
21665,38884
21676,38911
22002,38911
21917,38826
21886,38779
21844,38716
21818,38587
21818,37131
21782,37107
21725,37024
21705,36925
21705,36496
21029,36496
21029,36974
20991,37066
20921,37137
20829,37175
20695,37175
20632,37112
20632,36433
20532,36433
20532,37112
20470,37175
20336,37175
20244,37137
20173,37066
20135,36974
20135,36496
20198,36433
20532,36433
20632,36433
20966,36433
21029,36496
21705,36496
21705,35842
21715,35792
21029,35792
21029,36271
20966,36333
20632,36333
20632,35655
20532,35655
20532,36333
20198,36333
20135,36271
20135,35792
20173,35700
20244,35630
20336,35592
20470,35592
20532,35655
20632,35655
20695,35592
20829,35592
20921,35630
20991,35700
21029,35792
21715,35792
21723,35749
21777,35664
21818,35636
21818,34863
21782,34840
21725,34756
21705,34657
21705,34228
21029,34228
21029,34707
20991,34799
20921,34869
20829,34907
20695,34907
20632,34844
20632,34166
20532,34166
20532,34844
20470,34907
20336,34907
20244,34869
20173,34799
20135,34707
20135,34705
18307,34705
18149,35086
17858,35378
17477,35537
17064,35537
16683,35379
16391,35088
16232,34707
16232,34294
16390,33913
16681,33621
17062,33462
17475,33462
17856,33620
18148,33911
18307,34292
18307,34705
20135,34705
20135,34228
20198,34166
20532,34166
20632,34166
20966,34166
21029,34228
21705,34228
21705,33574
21715,33525
21029,33525
21029,34003
20966,34066
20632,34066
20632,33387
20532,33387
20532,34066
20198,34066
20135,34003
20135,33525
20173,33433
20244,33362
20336,33324
20470,33324
20532,33387
20632,33387
20695,33324
20829,33324
20921,33362
20991,33433
21029,33525
21715,33525
21723,33482
21777,33397
21861,33339
21960,33319
22354,33319
22446,33337
22531,33392
22589,33475
22609,33574
22609,34657
22591,34750
22536,34835
22495,34863
22495,35636
22531,35659
22589,35743
22609,35842
22609,36925
22591,37017
22536,37102
22495,37130
22495,38447
22577,38528
22577,37221
22580,37205
22602,37092
22676,36982
22968,36689
22987,36677
23078,36616
23189,36594
23202,36574
23286,36517
23385,36497
24054,36497
24147,36514
24226,36565
24248,36542
24259,36535
24358,36469
24487,36443
24519,36443
24519,36309
24536,36217
24591,36132
24675,36075
24774,36054
25065,36054
25158,36072
25172,36081
25224,36059
25307,36059
25370,36122
25370,36732
25362,36732
25362,36832
25370,36832
25370,37442
25307,37504
25224,37504
25173,37483
25164,37489
25065,37509
24774,37509
24681,37492
24596,37437
24539,37353
24519,37254
24519,37209
24470,37241
24340,37267
24247,37267
24237,37284
24153,37341
24054,37361
23385,37361
23292,37343
23280,37335
23254,37361
23254,37680
23286,37658
23385,37638
24054,37638
24147,37656
24232,37710
24246,37732
24390,37732
24520,37758
24534,37767
24536,37752
24591,37667
24675,37610
24774,37590
25065,37590
25158,37607
25168,37614
25175,37610
25274,37590
25565,37590
25658,37607
25668,37614
25675,37610
25774,37590
26065,37590
26158,37607
26168,37614
26175,37610
26274,37590
26565,37590
26658,37607
26668,37614
26675,37610
26774,37590
27065,37590
27158,37607
27243,37662
27300,37746
27320,37845
27320,37889
27454,37754
27691,37656
27947,37656
28184,37753
28365,37934
28463,38171
28463,38427
28452,38454
29425,39426
30513,39426
30513,39362
30575,39300
30920,39300
30920,39307
31020,39307
31020,39300
31364,39300
31426,39362
31426,39515
31466,39454
31549,39397
31649,39376
32794,39376
32887,39394
32972,39449
33029,39532
33046,39616
33061,39539
33116,39454
33199,39397
33298,39376
34444,39376
34537,39394
34622,39449
34679,39532
34692,39597
34692,39586
34754,39524
35099,39524
35099,39898
35036,39960
34892,39960
34800,39922
34730,39852
34699,39776
34699,39848
34681,39941
34627,40026
34543,40083
34444,40103
33773,40103
33863,40321
33863,40577
33777,40786
34665,40786
35590,39860
35609,39848
35700,39787
35830,39761
36129,39761
36304,39586
35605,39586
35605,39760
35567,39852
35497,39922
35405,39960
35261,39960
35199,39898
35199,39524
35543,39524
35605,39586
36304,39586
36680,39210
36680,39043
36684,39024
36561,39024
36432,38998
36322,38924
36195,38798
36169,38759
36122,38688
36112,38640
35605,38640
35605,38789
35567,38881
35497,38952
35407,38989
35497,39026
35567,39096
35605,39188
35605,39361
35543,39424
35199,39424
35199,39050
35260,38989
35199,38927
35199,38577
35099,38577
35099,38927
35037,38989
35099,39050
35099,39424
34754,39424
34692,39361
34692,39188
34730,39096
34800,39026
34890,38989
34800,38952
34730,38881
34692,38789
34692,38640
34754,38577
35099,38577
35199,38577
35543,38577
35605,38640
36112,38640
36096,38558
36096,38171
35576,37652
35496,37732
35525,37774
35545,37874
35545,38151
35567,38173
35605,38265
35605,38415
35543,38477
35199,38477
35199,38469
35099,38469
35099,38477
34754,38477
34692,38415
34692,38265
34723,38189
31426,38189
31426,38596
31388,38688
31318,38759
31266,38780
31318,38801
31388,38872
31426,38964
31426,39137
31364,39200
31020,39200
31020,38826
31065,38780
31020,38734
31020,38126
30920,38126
30920,38734
30874,38780
30920,38826
30920,39200
30575,39200
30513,39137
30513,38964
30551,38872
30621,38801
30673,38780
30621,38759
30551,38688
30513,38596
30513,38189
30575,38126
30920,38126
31020,38126
31364,38126
31426,38189
34723,38189
34730,38173
34752,38151
34752,37874
34758,37844
34686,37814
34504,37633
34472,37556
31426,37556
31426,37964
31364,38026
31020,38026
31020,37418
30920,37418
30920,38026
30575,38026
30513,37964
30513,37556
30551,37464
30621,37394
30713,37356
30857,37356
30920,37418
31020,37418
31082,37356
31226,37356
31318,37394
31388,37464
31426,37556
34472,37556
34406,37397
34406,37343
34365,37343
34273,37326
34248,37310
34228,37323
34129,37343
33932,37343
33839,37326
33815,37310
33795,37323
33696,37343
33499,37343
33406,37326
33382,37310
33362,37323
33263,37343
33066,37343
32973,37326
32948,37310
32929,37323
32830,37343
32633,37343
32540,37326
32515,37310
32446,37338
32410,37338
32347,37276
32347,36941
32356,36941
32356,36841
32347,36841
32347,36833
32249,36833
32249,36841
32240,36841
32240,36941
32249,36941
32249,37276
32187,37338
32150,37338
32082,37310
32063,37323
31964,37343
31767,37343
31674,37326
31649,37310
31630,37323
31531,37343
31334,37343
31241,37326
31156,37271
31099,37187
31079,37088
31079,36694
31082,36677
30778,36677
30281,37174
30277,37176
30287,37200
30287,37456
30189,37692
30008,37874
29772,37972
29516,37972
29279,37874
29098,37693
29000,37457
29000,37201
29097,36964
29167,36894
27315,36894
27315,37304
27277,37396
27207,37466
27115,37504
27032,37504
26970,37442
26970,36832
27253,36832
27315,36894
29167,36894
29278,36783
29515,36685
29771,36684
29797,36695
29798,36695
29811,36686
29812,36686
30238,36260
27315,36260
27315,36669
27253,36732
26970,36732
26970,36122
26870,36122
26870,36732
26862,36732
26862,36832
26870,36832
26870,37442
26807,37504
26724,37504
26673,37483
26664,37489
26565,37509
26274,37509
26181,37492
26167,37483
26115,37504
26032,37504
25970,37442
25970,36832
25870,36832
25870,37442
25807,37504
25724,37504
25670,37482
25615,37504
25532,37504
25470,37442
25470,36832
25870,36832
25970,36832
25977,36832
25977,36732
25970,36732
25970,36122
25870,36122
25870,36732
25470,36732
25470,36122
25532,36059
25615,36059
25670,36082
25724,36059
25807,36059
25870,36122
25970,36122
26032,36059
26115,36059
26166,36080
26175,36075
26274,36054
26565,36054
26658,36072
26672,36081
26724,36059
26807,36059
26870,36122
26970,36122
27032,36059
27115,36059
27207,36097
27277,36168
27315,36260
30238,36260
30399,36099
30401,36097
30508,36025
30638,35999
31590,35999
31590,35869
31688,35632
31869,35451
32105,35353
32361,35352
32598,35450
32779,35631
32816,35719
33115,35420
33175,35379
33225,35346
33355,35320
35310,35320
35440,35346
35550,35420
35942,35812
35991,35885
36001,35878
36100,35858
36573,35858
36665,35876
36750,35931
36769,35958
36784,35936
36867,35878
36966,35858
37439,35858
37531,35876
37617,35931
37674,36014
37694,36113
37694,36346
37800,36453
37874,36563
37899,36692
37899,37433
37874,37563
37811,37656
37800,37672
37765,37708
37782,37719
37839,37802
37859,37901
37859,38256
37847,38322
37904,38264
37932,38245
38014,38191
38144,38165
40893,38165
41023,38191
41105,38245
41133,38264
41179,38311
42668,38311
42797,38337
42907,38410
42933,38437
43063,38411
43413,38411
43423,38385
43604,38204
43841,38106
44097,38106
44334,38203
44515,38384
44613,38621
44613,38877
45490,38877
45490,37012
42463,37012
42463,37540
42425,37632
42355,37702
42263,37740
41932,37740
41870,37678
41870,36950
42401,36950
42463,37012
45490,37012
45490,36259
42463,36259
42463,36787
42401,36850
41870,36850
41870,36121
41770,36121
41770,36850
41762,36850
41762,36950
41770,36950
41770,37678
41707,37740
41376,37740
41284,37702
41214,37632
41206,37614
41066,37708
40820,37757
40573,37708
40364,37568
40320,37501
40275,37568
40066,37708
39820,37757
39573,37708
39364,37568
39320,37501
39275,37568
39066,37708
38820,37757
38573,37708
38364,37568
38225,37359
38176,37113
38176,36686
38225,36440
38364,36231
38573,36091
38820,36042
39066,36091
39275,36231
39320,36298
39364,36231
39573,36091
39820,36042
40066,36091
40275,36231
40320,36298
40364,36231
40573,36091
40820,36042
41066,36091
41206,36185
41214,36167
41284,36097
41376,36059
41707,36059
41770,36121
41870,36121
41932,36059
42263,36059
42355,36097
42425,36167
42463,36259
45490,36259
45490,34705
45307,34705
45149,35086
44858,35378
44477,35537
44064,35537
43683,35379
43391,35088
43232,34707
43232,34294
43390,33913
43681,33621
44062,33462
44475,33462
44856,33620
45148,33911
45307,34292
45307,34705
45490,34705
45490,34027
45430,33726
45275,33494
45043,33339
44742,33279
16797,33279
16496,33339
" /> 
<polyline style="fill-rule:evenodd;"
points="34430,44506
34413,44598
34371,44663
34387,44679
34425,44771
34425,44798
34363,44860
33970,44860
33970,44842
33870,44842
33870,44860
33862,44860
33862,44939
33870,44939
33870,44957
33970,44957
33970,44939
34363,44939
34425,45001
34425,45028
34387,45120
34371,45136
34410,45194
34430,45293
34430,45419
34617,45419
34854,45516
35035,45697
35134,45934
35134,46190
35036,46427
34855,46608
34619,46706
34535,46706
34535,46962
34438,47198
34257,47380
34020,47478
33764,47478
33527,47380
33372,47225
33280,47317
33044,47415
32788,47415
32551,47317
32370,47136
32272,46900
32271,46644
32369,46407
32550,46226
32577,46215
32577,46085
32344,45852
32307,45852
32282,45848
32262,45848
32218,45892
32218,45912
32222,45937
32222,47174
32609,47561
35029,47561
35364,47226
35364,45769
35338,45758
35157,45577
35059,45341
35059,45085
35157,44848
35337,44667
35449,44620
35183,44354
34430,44354
34430,44506
" /> 
<polyline style="fill-rule:evenodd;"
points="40160,38887
40098,38950
39763,38950
39763,38942
39663,38942
39663,38950
39655,38950
39655,39050
39663,39050
39663,39433
39622,39475
39663,39516
39663,39900
39655,39900
39655,40000
39663,40000
39663,40007
39763,40007
39763,40000
40098,40000
40160,40062
40160,40245
40122,40337
40052,40408
39960,40446
39826,40446
39763,40383
39763,40446
39747,40446
39758,40499
39758,41089
39741,41182
39699,41247
39715,41263
39753,41354
39753,41425
39782,41397
39874,41359
40057,41359
40120,41421
40120,41756
40112,41756
40112,41856
40120,41856
40120,41864
40220,41864
40220,41856
40603,41856
40666,41918
40666,42052
40628,42144
40572,42200
40593,42214
40650,42297
40670,42396
40670,42790
40653,42883
40598,42968
40515,43025
40416,43045
39923,43045
39831,43028
39746,42973
39745,42972
39741,42993
39686,43078
39603,43135
39503,43155
38716,43155
38623,43138
38538,43083
38481,42999
38470,42944
38325,42944
38195,42918
38086,42844
37916,42675
37899,42649
37843,42565
37817,42436
37817,41226
37219,40628
37140,40612
37030,40539
36957,40429
36931,40300
36931,39917
36509,40339
36399,40412
36270,40438
35970,40438
35068,41340
35297,41340
35297,41340
35427,41366
35537,41439
35981,41883
35981,40951
35998,40859
36053,40774
36136,40717
36236,40697
37023,40697
37116,40714
37201,40769
37258,40852
37278,40951
37278,42448
37261,42540
37206,42625
37122,42682
37023,42702
36800,42702
37264,43166
37432,42997
37668,42899
37925,42899
38161,42997
38342,43178
38441,43414
38441,43670
38343,43907
38162,44088
37968,44169
38047,44359
38047,44493
38587,43954
38576,43928
38576,43672
38673,43435
38854,43254
39091,43156
39347,43156
39584,43253
39695,43364
39854,43204
40091,43106
40347,43106
40584,43203
40765,43384
40863,43621
40863,43877
40766,44114
40585,44295
40410,44367
40523,44414
40705,44595
40803,44832
40803,45088
40705,45324
40524,45506
40498,45517
40498,45517
40472,45646
40462,45662
40681,45753
40862,45934
40894,46010
40946,45928
41012,45883
40909,45700
40897,45649
40944,45550
41670,45550
41670,45557
41770,45557
41770,45550
42495,45550
42542,45649
42530,45700
42427,45884
42488,45923
42545,46007
42565,46106
42565,46893
42550,46972
42655,46867
42655,39116
42527,38988
42304,38988
42388,39044
42528,39253
42577,39500
42528,39746
42388,39955
42321,40000
42388,40044
42528,40253
42577,40500
42528,40746
42388,40955
42321,41000
42388,41044
42528,41253
42577,41500
42528,41746
42388,41955
42321,42000
42388,42044
42528,42253
42577,42500
42528,42746
42388,42955
42321,43000
42388,43044
42528,43253
42577,43500
42528,43746
42388,43955
42321,44000
42388,44044
42528,44253
42577,44500
42528,44746
42388,44955
42312,45005
42407,45080
42530,45299
42542,45350
42495,45450
41770,45450
41770,45442
41670,45442
41670,45450
40944,45450
40897,45350
40909,45299
41032,45080
41127,45005
41051,44955
40911,44746
40862,44500
40911,44253
41051,44044
41118,44000
41051,43955
40911,43746
40862,43500
40911,43253
41051,43044
41118,43000
41051,42955
40911,42746
40862,42500
40911,42253
41051,42044
41118,42000
41051,41955
40911,41746
40874,41559
40666,41559
40666,41693
40603,41756
40220,41756
40220,41421
40282,41359
40465,41359
40557,41397
40628,41467
40666,41559
40874,41559
40862,41500
40911,41253
41051,41044
41118,41000
41051,40955
40911,40746
40862,40500
40911,40253
41051,40044
41118,40000
41051,39955
40911,39746
40862,39500
40911,39253
41006,39112
40160,39112
40160,39295
40122,39387
40052,39458
40011,39475
40052,39491
40122,39562
40160,39654
40160,39837
40098,39900
39763,39900
39763,39516
39805,39475
39763,39433
39763,39050
40098,39050
40160,39112
41006,39112
41051,39044
41135,38988
41039,38988
40910,38962
40800,38889
40753,38842
40160,38842
40160,38887
" /> 
<polyline style="fill-rule:evenodd;"
points="31744,43762
31307,43762
31307,43754
31207,43754
31207,43762
30770,43762
30770,43754
30670,43754
30670,43762
30232,43762
30232,43754
30132,43754
30132,43762
30124,43762
30124,43862
30132,43862
30132,44300
30124,44300
30124,44400
30132,44400
30132,44837
30124,44837
30124,44937
30132,44937
30132,45374
30124,45374
30124,45474
30132,45474
30132,45482
30232,45482
30232,45474
30670,45474
30670,45482
30770,45482
30770,45474
31207,45474
31207,45482
31307,45482
31307,45474
31744,45474
31744,45482
31844,45482
31844,45474
31852,45474
31852,45374
31844,45374
31844,44999
31776,44999
31776,45312
31744,45343
31744,45374
31713,45374
31682,45406
31369,45406
31338,45374
31307,45374
31307,45343
31276,45312
31276,44999
31238,44999
31238,45312
31207,45343
31207,45374
31176,45374
31144,45406
30832,45406
30801,45374
30770,45374
30770,45343
30738,45312
30738,44999
30701,44999
30701,45312
30670,45343
30670,45374
30638,45374
30607,45406
30295,45406
30263,45374
30232,45374
30232,45343
30201,45312
30201,44999
30232,44968
30232,44937
30263,44937
30295,44906
30607,44906
30638,44937
30670,44937
30670,44968
30701,44999
30738,44999
30770,44968
30770,44937
30801,44937
30832,44906
31144,44906
31176,44937
31207,44937
31207,44968
31238,44999
31276,44999
31307,44968
31307,44937
31338,44937
31369,44906
31682,44906
31713,44937
31744,44937
31744,44968
31776,44999
31844,44999
31844,44937
31852,44937
31852,44837
31844,44837
31844,44462
31776,44462
31776,44774
31744,44806
31744,44837
31713,44837
31682,44868
31369,44868
31338,44837
31307,44837
31307,44806
31276,44774
31276,44462
31238,44462
31238,44774
31207,44806
31207,44837
31176,44837
31144,44868
30832,44868
30801,44837
30770,44837
30770,44806
30738,44774
30738,44462
30701,44462
30701,44774
30670,44806
30670,44837
30638,44837
30607,44868
30295,44868
30263,44837
30232,44837
30232,44806
30201,44774
30201,44462
30232,44431
30232,44400
30263,44400
30295,44368
30607,44368
30638,44400
30670,44400
30670,44431
30701,44462
30738,44462
30770,44431
30770,44400
30801,44400
30832,44368
31144,44368
31176,44400
31207,44400
31207,44431
31238,44462
31276,44462
31307,44431
31307,44400
31338,44400
31369,44368
31682,44368
31713,44400
31744,44400
31744,44431
31776,44462
31844,44462
31844,44400
31852,44400
31852,44300
31844,44300
31844,43925
31776,43925
31776,44237
31744,44268
31744,44300
31713,44300
31682,44331
31369,44331
31338,44300
31307,44300
31307,44268
31276,44237
31276,43925
31238,43925
31238,44237
31207,44268
31207,44300
31176,44300
31144,44331
30832,44331
30801,44300
30770,44300
30770,44268
30738,44237
30738,43925
30701,43925
30701,44237
30670,44268
30670,44300
30638,44300
30607,44331
30295,44331
30263,44300
30232,44300
30232,44268
30201,44237
30201,43925
30232,43893
30232,43862
30263,43862
30295,43831
30607,43831
30638,43862
30670,43862
30670,43893
30701,43925
30738,43925
30770,43893
30770,43862
30801,43862
30832,43831
31144,43831
31176,43862
31207,43862
31207,43893
31238,43925
31276,43925
31307,43893
31307,43862
31338,43862
31369,43831
31682,43831
31713,43862
31744,43862
31744,43893
31776,43925
31844,43925
31844,43862
31852,43862
31852,43762
31844,43762
31844,43754
31744,43754
31744,43762
" /> 
<polyline style="fill-rule:evenodd;"
points="39060,41650
39052,41650
39052,41750
39060,41750
39060,41757
39160,41757
39160,41750
39168,41750
39168,41650
39160,41650
39160,41642
39060,41642
39060,41650
" /> 
</g>
<g style="fill:#FFFFFF; fill-opacity:1.0; 
stroke:#FFFFFF; stroke-width:100; stroke-opacity:1; 
stroke-linecap:round; stroke-linejoin:round;">
</g>
<g style="fill:#FFFFFF; fill-opacity:1.0; 
stroke:#FFFFFF; stroke-width:0; stroke-opacity:1; 
stroke-linecap:round; stroke-linejoin:round;">
<circle cx="40270" cy="39400" r="157.48" /> 
</g>
<g style="fill:#FFFFFF; fill-opacity:1.0; 
stroke:#FFFFFF; stroke-width:39.3701; stroke-opacity:1; 
stroke-linecap:round; stroke-linejoin:round;">
</g>
<g style="fill:#FFFFFF; fill-opacity:1.0; 
stroke:#FFFFFF; stroke-width:0; stroke-opacity:1; 
stroke-linecap:round; stroke-linejoin:round;">
<circle cx="25370" cy="42650" r="157.48" /> 
</g>
<g style="fill:#FFFFFF; fill-opacity:1.0; 
stroke:#FFFFFF; stroke-width:39.3701; stroke-opacity:1; 
stroke-linecap:round; stroke-linejoin:round;">
</g>
<g style="fill:#FFFFFF; fill-opacity:1.0; 
stroke:#FFFFFF; stroke-width:0; stroke-opacity:1; 
stroke-linecap:round; stroke-linejoin:round;">
<circle cx="43370" cy="37250" r="157.48" /> 
</g>
<g style="fill:#FFFFFF; fill-opacity:1.0; 
stroke:#FFFFFF; stroke-width:39.3701; stroke-opacity:1; 
stroke-linecap:round; stroke-linejoin:round;">
</g>
<g style="fill:#FFFFFF; fill-opacity:1.0; 
stroke:#FFFFFF; stroke-width:0; stroke-opacity:1; 
stroke-linecap:round; stroke-linejoin:round;">
<circle cx="28215.5" cy="37090.6" r="157.48" /> 
</g>
<g style="fill:#FFFFFF; fill-opacity:1.0; 
stroke:#FFFFFF; stroke-width:39.3701; stroke-opacity:1; 
stroke-linecap:round; stroke-linejoin:round;">
</g>
<g style="fill:#FFFFFF; fill-opacity:1.0; 
stroke:#FFFFFF; stroke-width:0; stroke-opacity:1; 
stroke-linecap:round; stroke-linejoin:round;">
<circle cx="43970" cy="38750" r="157.48" /> 
</g>
<g style="fill:#FFFFFF; fill-opacity:1.0; 
stroke:#FFFFFF; stroke-width:39.3701; stroke-opacity:1; 
stroke-linecap:round; stroke-linejoin:round;">
</g>
<g style="fill:#FFFFFF; fill-opacity:1.0; 
stroke:#FFFFFF; stroke-width:0; stroke-opacity:1; 
stroke-linecap:round; stroke-linejoin:round;">
<circle cx="40317.2" cy="46299.2" r="157.48" /> 
</g>
<g style="fill:#FFFFFF; fill-opacity:1.0; 
stroke:#FFFFFF; stroke-width:39.3701; stroke-opacity:1; 
stroke-linecap:round; stroke-linejoin:round;">
</g>
<g style="fill:#FFFFFF; fill-opacity:1.0; 
stroke:#FFFFFF; stroke-width:0; stroke-opacity:1; 
stroke-linecap:round; stroke-linejoin:round;">
<circle cx="34490.5" cy="46063" r="157.48" /> 
</g>
<g style="fill:#FFFFFF; fill-opacity:1.0; 
stroke:#FFFFFF; stroke-width:39.3701; stroke-opacity:1; 
stroke-linecap:round; stroke-linejoin:round;">
</g>
<g style="fill:#FFFFFF; fill-opacity:1.0; 
stroke:#FFFFFF; stroke-width:0; stroke-opacity:1; 
stroke-linecap:round; stroke-linejoin:round;">
<circle cx="31920" cy="41650" r="157.48" /> 
</g>
<g style="fill:#FFFFFF; fill-opacity:1.0; 
stroke:#FFFFFF; stroke-width:39.3701; stroke-opacity:1; 
stroke-linecap:round; stroke-linejoin:round;">
</g>
<g style="fill:#FFFFFF; fill-opacity:1.0; 
stroke:#FFFFFF; stroke-width:0; stroke-opacity:1; 
stroke-linecap:round; stroke-linejoin:round;">
<circle cx="34570" cy="43200" r="157.48" /> 
</g>
<g style="fill:#FFFFFF; fill-opacity:1.0; 
stroke:#FFFFFF; stroke-width:39.3701; stroke-opacity:1; 
stroke-linecap:round; stroke-linejoin:round;">
</g>
<g style="fill:#FFFFFF; fill-opacity:1.0; 
stroke:#FFFFFF; stroke-width:0; stroke-opacity:1; 
stroke-linecap:round; stroke-linejoin:round;">
<circle cx="21120" cy="39250" r="157.48" /> 
</g>
<g style="fill:#FFFFFF; fill-opacity:1.0; 
stroke:#FFFFFF; stroke-width:39.3701; stroke-opacity:1; 
stroke-linecap:round; stroke-linejoin:round;">
</g>
<g style="fill:#FFFFFF; fill-opacity:1.0; 
stroke:#FFFFFF; stroke-width:0; stroke-opacity:1; 
stroke-linecap:round; stroke-linejoin:round;">
<circle cx="33220" cy="40450" r="157.48" /> 
</g>
<g style="fill:#FFFFFF; fill-opacity:1.0; 
stroke:#FFFFFF; stroke-width:39.3701; stroke-opacity:1; 
stroke-linecap:round; stroke-linejoin:round;">
</g>
<g style="fill:#FFFFFF; fill-opacity:1.0; 
stroke:#FFFFFF; stroke-width:0; stroke-opacity:1; 
stroke-linecap:round; stroke-linejoin:round;">
<circle cx="27820" cy="38300" r="157.48" /> 
</g>
<g style="fill:#FFFFFF; fill-opacity:1.0; 
stroke:#FFFFFF; stroke-width:39.3701; stroke-opacity:1; 
stroke-linecap:round; stroke-linejoin:round;">
</g>
<g style="fill:#FFFFFF; fill-opacity:1.0; 
stroke:#FFFFFF; stroke-width:0; stroke-opacity:1; 
stroke-linecap:round; stroke-linejoin:round;">
<circle cx="38220" cy="39850" r="157.48" /> 
</g>
<g style="fill:#FFFFFF; fill-opacity:1.0; 
stroke:#FFFFFF; stroke-width:39.3701; stroke-opacity:1; 
stroke-linecap:round; stroke-linejoin:round;">
</g>
<g style="fill:#FFFFFF; fill-opacity:1.0; 
stroke:#FFFFFF; stroke-width:0; stroke-opacity:1; 
stroke-linecap:round; stroke-linejoin:round;">
<circle cx="23794.3" cy="44833.6" r="157.48" /> 
</g>
<g style="fill:#FFFFFF; fill-opacity:1.0; 
stroke:#FFFFFF; stroke-width:39.3701; stroke-opacity:1; 
stroke-linecap:round; stroke-linejoin:round;">
</g>
<g style="fill:#FFFFFF; fill-opacity:1.0; 
stroke:#FFFFFF; stroke-width:0; stroke-opacity:1; 
stroke-linecap:round; stroke-linejoin:round;">
<circle cx="24957.4" cy="44849.6" r="157.48" /> 
</g>
<g style="fill:#FFFFFF; fill-opacity:1.0; 
stroke:#FFFFFF; stroke-width:39.3701; stroke-opacity:1; 
stroke-linecap:round; stroke-linejoin:round;">
</g>
<g style="fill:#FFFFFF; fill-opacity:1.0; 
stroke:#FFFFFF; stroke-width:0; stroke-opacity:1; 
stroke-linecap:round; stroke-linejoin:round;">
<circle cx="37797.6" cy="43543.3" r="157.48" /> 
</g>
<g style="fill:#FFFFFF; fill-opacity:1.0; 
stroke:#FFFFFF; stroke-width:39.3701; stroke-opacity:1; 
stroke-linecap:round; stroke-linejoin:round;">
</g>
<g style="fill:#FFFFFF; fill-opacity:1.0; 
stroke:#FFFFFF; stroke-width:0; stroke-opacity:1; 
stroke-linecap:round; stroke-linejoin:round;">
<circle cx="37403.9" cy="44488.2" r="157.48" /> 
</g>
<g style="fill:#FFFFFF; fill-opacity:1.0; 
stroke:#FFFFFF; stroke-width:39.3701; stroke-opacity:1; 
stroke-linecap:round; stroke-linejoin:round;">
</g>
<g style="fill:#FFFFFF; fill-opacity:1.0; 
stroke:#FFFFFF; stroke-width:0; stroke-opacity:1; 
stroke-linecap:round; stroke-linejoin:round;">
<circle cx="24962.9" cy="40236.2" r="157.48" /> 
</g>
<g style="fill:#FFFFFF; fill-opacity:1.0; 
stroke:#FFFFFF; stroke-width:39.3701; stroke-opacity:1; 
stroke-linecap:round; stroke-linejoin:round;">
</g>
<g style="fill:#FFFFFF; fill-opacity:1.0; 
stroke:#FFFFFF; stroke-width:0; stroke-opacity:1; 
stroke-linecap:round; stroke-linejoin:round;">
<circle cx="27144.5" cy="42200.1" r="157.48" /> 
</g>
<g style="fill:#FFFFFF; fill-opacity:1.0; 
stroke:#FFFFFF; stroke-width:39.3701; stroke-opacity:1; 
stroke-linecap:round; stroke-linejoin:round;">
</g>
<g style="fill:#FFFFFF; fill-opacity:1.0; 
stroke:#FFFFFF; stroke-width:0; stroke-opacity:1; 
stroke-linecap:round; stroke-linejoin:round;">
<circle cx="26301.5" cy="39921.3" r="157.48" /> 
</g>
<g style="fill:#FFFFFF; fill-opacity:1.0; 
stroke:#FFFFFF; stroke-width:39.3701; stroke-opacity:1; 
stroke-linecap:round; stroke-linejoin:round;">
</g>
<g style="fill:#FFFFFF; fill-opacity:1.0; 
stroke:#FFFFFF; stroke-width:0; stroke-opacity:1; 
stroke-linecap:round; stroke-linejoin:round;">
<circle cx="26773.9" cy="45196.9" r="157.48" /> 
</g>
<g style="fill:#FFFFFF; fill-opacity:1.0; 
stroke:#FFFFFF; stroke-width:39.3701; stroke-opacity:1; 
stroke-linecap:round; stroke-linejoin:round;">
</g>
<g style="fill:#FFFFFF; fill-opacity:1.0; 
stroke:#FFFFFF; stroke-width:0; stroke-opacity:1; 
stroke-linecap:round; stroke-linejoin:round;">
<circle cx="35041.7" cy="36220.5" r="157.48" /> 
</g>
<g style="fill:#FFFFFF; fill-opacity:1.0; 
stroke:#FFFFFF; stroke-width:39.3701; stroke-opacity:1; 
stroke-linecap:round; stroke-linejoin:round;">
</g>
<g style="fill:#FFFFFF; fill-opacity:1.0; 
stroke:#FFFFFF; stroke-width:0; stroke-opacity:1; 
stroke-linecap:round; stroke-linejoin:round;">
<circle cx="35703.1" cy="45212.6" r="157.48" /> 
</g>
<g style="fill:#FFFFFF; fill-opacity:1.0; 
stroke:#FFFFFF; stroke-width:39.3701; stroke-opacity:1; 
stroke-linecap:round; stroke-linejoin:round;">
</g>
<g style="fill:#FFFFFF; fill-opacity:1.0; 
stroke:#FFFFFF; stroke-width:0; stroke-opacity:1; 
stroke-linecap:round; stroke-linejoin:round;">
<circle cx="30868.4" cy="47480.3" r="157.48" /> 
</g>
<g style="fill:#FFFFFF; fill-opacity:1.0; 
stroke:#FFFFFF; stroke-width:39.3701; stroke-opacity:1; 
stroke-linecap:round; stroke-linejoin:round;">
</g>
<g style="fill:#FFFFFF; fill-opacity:1.0; 
stroke:#FFFFFF; stroke-width:0; stroke-opacity:1; 
stroke-linecap:round; stroke-linejoin:round;">
<circle cx="36695.2" cy="37165.4" r="157.48" /> 
</g>
<g style="fill:#FFFFFF; fill-opacity:1.0; 
stroke:#FFFFFF; stroke-width:39.3701; stroke-opacity:1; 
stroke-linecap:round; stroke-linejoin:round;">
</g>
<g style="fill:#FFFFFF; fill-opacity:1.0; 
stroke:#FFFFFF; stroke-width:0; stroke-opacity:1; 
stroke-linecap:round; stroke-linejoin:round;">
<circle cx="29451.1" cy="46771.7" r="157.48" /> 
</g>
<g style="fill:#FFFFFF; fill-opacity:1.0; 
stroke:#FFFFFF; stroke-width:39.3701; stroke-opacity:1; 
stroke-linecap:round; stroke-linejoin:round;">
</g>
<g style="fill:#FFFFFF; fill-opacity:1.0; 
stroke:#FFFFFF; stroke-width:0; stroke-opacity:1; 
stroke-linecap:round; stroke-linejoin:round;">
<circle cx="32234.2" cy="35996.6" r="157.48" /> 
</g>
<g style="fill:#FFFFFF; fill-opacity:1.0; 
stroke:#FFFFFF; stroke-width:39.3701; stroke-opacity:1; 
stroke-linecap:round; stroke-linejoin:round;">
</g>
<g style="fill:#FFFFFF; fill-opacity:1.0; 
stroke:#FFFFFF; stroke-width:0; stroke-opacity:1; 
stroke-linecap:round; stroke-linejoin:round;">
<circle cx="29643.8" cy="37328.7" r="157.48" /> 
</g>
<g style="fill:#FFFFFF; fill-opacity:1.0; 
stroke:#FFFFFF; stroke-width:39.3701; stroke-opacity:1; 
stroke-linecap:round; stroke-linejoin:round;">
</g>
<g style="fill:#FFFFFF; fill-opacity:1.0; 
stroke:#FFFFFF; stroke-width:0; stroke-opacity:1; 
stroke-linecap:round; stroke-linejoin:round;">
<circle cx="28663.7" cy="46299.2" r="157.48" /> 
</g>
<g style="fill:#FFFFFF; fill-opacity:1.0; 
stroke:#FFFFFF; stroke-width:39.3701; stroke-opacity:1; 
stroke-linecap:round; stroke-linejoin:round;">
</g>
<g style="fill:#FFFFFF; fill-opacity:1.0; 
stroke:#FFFFFF; stroke-width:0; stroke-opacity:1; 
stroke-linecap:round; stroke-linejoin:round;">
<circle cx="33634.2" cy="36220.5" r="157.48" /> 
</g>
<g style="fill:#FFFFFF; fill-opacity:1.0; 
stroke:#FFFFFF; stroke-width:39.3701; stroke-opacity:1; 
stroke-linecap:round; stroke-linejoin:round;">
</g>
<g style="fill:#FFFFFF; fill-opacity:1.0; 
stroke:#FFFFFF; stroke-width:0; stroke-opacity:1; 
stroke-linecap:round; stroke-linejoin:round;">
<circle cx="27561.3" cy="47322.8" r="157.48" /> 
</g>
<g style="fill:#FFFFFF; fill-opacity:1.0; 
stroke:#FFFFFF; stroke-width:39.3701; stroke-opacity:1; 
stroke-linecap:round; stroke-linejoin:round;">
</g>
<g style="fill:#FFFFFF; fill-opacity:1.0; 
stroke:#FFFFFF; stroke-width:0; stroke-opacity:1; 
stroke-linecap:round; stroke-linejoin:round;">
<circle cx="30815.2" cy="42367.9" r="157.48" /> 
</g>
<g style="fill:#FFFFFF; fill-opacity:1.0; 
stroke:#FFFFFF; stroke-width:39.3701; stroke-opacity:1; 
stroke-linecap:round; stroke-linejoin:round;">
</g>
<g style="fill:#FFFFFF; fill-opacity:1.0; 
stroke:#FFFFFF; stroke-width:0; stroke-opacity:1; 
stroke-linecap:round; stroke-linejoin:round;">
<circle cx="35050.4" cy="37268.8" r="157.48" /> 
</g>
<g style="fill:#FFFFFF; fill-opacity:1.0; 
stroke:#FFFFFF; stroke-width:39.3701; stroke-opacity:1; 
stroke-linecap:round; stroke-linejoin:round;">
</g>
<g style="fill:#FFFFFF; fill-opacity:1.0; 
stroke:#FFFFFF; stroke-width:0; stroke-opacity:1; 
stroke-linecap:round; stroke-linejoin:round;">
<circle cx="40159.8" cy="44960.6" r="157.48" /> 
</g>
<g style="fill:#FFFFFF; fill-opacity:1.0; 
stroke:#FFFFFF; stroke-width:39.3701; stroke-opacity:1; 
stroke-linecap:round; stroke-linejoin:round;">
</g>
<g style="fill:#FFFFFF; fill-opacity:1.0; 
stroke:#FFFFFF; stroke-width:0; stroke-opacity:1; 
stroke-linecap:round; stroke-linejoin:round;">
<circle cx="32915.7" cy="46771.7" r="157.48" /> 
</g>
<g style="fill:#FFFFFF; fill-opacity:1.0; 
stroke:#FFFFFF; stroke-width:39.3701; stroke-opacity:1; 
stroke-linecap:round; stroke-linejoin:round;">
</g>
<g style="fill:#FFFFFF; fill-opacity:1.0; 
stroke:#FFFFFF; stroke-width:0; stroke-opacity:1; 
stroke-linecap:round; stroke-linejoin:round;">
<circle cx="36773.9" cy="46929.1" r="157.48" /> 
</g>
<g style="fill:#FFFFFF; fill-opacity:1.0; 
stroke:#FFFFFF; stroke-width:39.3701; stroke-opacity:1; 
stroke-linecap:round; stroke-linejoin:round;">
</g>
<g style="fill:#FFFFFF; fill-opacity:1.0; 
stroke:#FFFFFF; stroke-width:0; stroke-opacity:1; 
stroke-linecap:round; stroke-linejoin:round;">
<circle cx="33892" cy="46834.6" r="157.48" /> 
</g>
<g style="fill:#FFFFFF; fill-opacity:1.0; 
stroke:#FFFFFF; stroke-width:39.3701; stroke-opacity:1; 
stroke-linecap:round; stroke-linejoin:round;">
</g>
<g style="fill:#FFFFFF; fill-opacity:1.0; 
stroke:#FFFFFF; stroke-width:0; stroke-opacity:1; 
stroke-linecap:round; stroke-linejoin:round;">
<circle cx="36459" cy="46063" r="157.48" /> 
</g>
<g style="fill:#FFFFFF; fill-opacity:1.0; 
stroke:#FFFFFF; stroke-width:39.3701; stroke-opacity:1; 
stroke-linecap:round; stroke-linejoin:round;">
</g>
<g style="fill:#FFFFFF; fill-opacity:1.0; 
stroke:#FFFFFF; stroke-width:0; stroke-opacity:1; 
stroke-linecap:round; stroke-linejoin:round;">
<circle cx="39070" cy="45400" r="157.48" /> 
</g>
<g style="fill:#FFFFFF; fill-opacity:1.0; 
stroke:#FFFFFF; stroke-width:39.3701; stroke-opacity:1; 
stroke-linecap:round; stroke-linejoin:round;">
</g>
<g style="fill:#FFFFFF; fill-opacity:1.0; 
stroke:#FFFFFF; stroke-width:0; stroke-opacity:1; 
stroke-linecap:round; stroke-linejoin:round;">
<circle cx="40220" cy="43750" r="157.48" /> 
</g>
<g style="fill:#FFFFFF; fill-opacity:1.0; 
stroke:#FFFFFF; stroke-width:39.3701; stroke-opacity:1; 
stroke-linecap:round; stroke-linejoin:round;">
</g>
<g style="fill:#FFFFFF; fill-opacity:1.0; 
stroke:#FFFFFF; stroke-width:0; stroke-opacity:1; 
stroke-linecap:round; stroke-linejoin:round;">
<circle cx="39220" cy="43800" r="157.48" /> 
</g>
<g style="fill:#FFFFFF; fill-opacity:1.0; 
stroke:#FFFFFF; stroke-width:39.3701; stroke-opacity:1; 
stroke-linecap:round; stroke-linejoin:round;">
</g>
<g style="fill:#FFFFFF; fill-opacity:1.0; 
stroke:#FFFFFF; stroke-width:0; stroke-opacity:1; 
stroke-linecap:round; stroke-linejoin:round;">
<circle cx="39718.4" cy="47401.6" r="157.48" /> 
</g>
<g style="fill:#FFFFFF; fill-opacity:1.0; 
stroke:#FFFFFF; stroke-width:39.3701; stroke-opacity:1; 
stroke-linecap:round; stroke-linejoin:round;">
</g>
<g style="fill:#FFFFFF; fill-opacity:1.0; 
stroke:#FFFFFF; stroke-width:0; stroke-opacity:1; 
stroke-linecap:round; stroke-linejoin:round;">
<circle cx="41720" cy="46500" r="196.85" /> 
</g>
<g style="fill:#FFFFFF; fill-opacity:1.0; 
stroke:#FFFFFF; stroke-width:39.3701; stroke-opacity:1; 
stroke-linecap:round; stroke-linejoin:round;">
</g>
<g style="fill:#FFFFFF; fill-opacity:1.0; 
stroke:#FFFFFF; stroke-width:0; stroke-opacity:1; 
stroke-linecap:round; stroke-linejoin:round;">
<circle cx="41720" cy="45500" r="196.85" /> 
</g>
<g style="fill:#FFFFFF; fill-opacity:1.0; 
stroke:#FFFFFF; stroke-width:39.3701; stroke-opacity:1; 
stroke-linecap:round; stroke-linejoin:round;">
</g>
<g style="fill:#FFFFFF; fill-opacity:1.0; 
stroke:#FFFFFF; stroke-width:0; stroke-opacity:1; 
stroke-linecap:round; stroke-linejoin:round;">
<circle cx="41720" cy="44500" r="196.85" /> 
</g>
<g style="fill:#FFFFFF; fill-opacity:1.0; 
stroke:#FFFFFF; stroke-width:39.3701; stroke-opacity:1; 
stroke-linecap:round; stroke-linejoin:round;">
</g>
<g style="fill:#FFFFFF; fill-opacity:1.0; 
stroke:#FFFFFF; stroke-width:0; stroke-opacity:1; 
stroke-linecap:round; stroke-linejoin:round;">
<circle cx="41720" cy="43500" r="196.85" /> 
</g>
<g style="fill:#FFFFFF; fill-opacity:1.0; 
stroke:#FFFFFF; stroke-width:39.3701; stroke-opacity:1; 
stroke-linecap:round; stroke-linejoin:round;">
</g>
<g style="fill:#FFFFFF; fill-opacity:1.0; 
stroke:#FFFFFF; stroke-width:0; stroke-opacity:1; 
stroke-linecap:round; stroke-linejoin:round;">
<circle cx="41720" cy="42500" r="196.85" /> 
</g>
<g style="fill:#FFFFFF; fill-opacity:1.0; 
stroke:#FFFFFF; stroke-width:39.3701; stroke-opacity:1; 
stroke-linecap:round; stroke-linejoin:round;">
</g>
<g style="fill:#FFFFFF; fill-opacity:1.0; 
stroke:#FFFFFF; stroke-width:0; stroke-opacity:1; 
stroke-linecap:round; stroke-linejoin:round;">
<circle cx="41720" cy="41500" r="196.85" /> 
</g>
<g style="fill:#FFFFFF; fill-opacity:1.0; 
stroke:#FFFFFF; stroke-width:39.3701; stroke-opacity:1; 
stroke-linecap:round; stroke-linejoin:round;">
</g>
<g style="fill:#FFFFFF; fill-opacity:1.0; 
stroke:#FFFFFF; stroke-width:0; stroke-opacity:1; 
stroke-linecap:round; stroke-linejoin:round;">
<circle cx="41720" cy="40500" r="196.85" /> 
</g>
<g style="fill:#FFFFFF; fill-opacity:1.0; 
stroke:#FFFFFF; stroke-width:39.3701; stroke-opacity:1; 
stroke-linecap:round; stroke-linejoin:round;">
</g>
<g style="fill:#FFFFFF; fill-opacity:1.0; 
stroke:#FFFFFF; stroke-width:0; stroke-opacity:1; 
stroke-linecap:round; stroke-linejoin:round;">
<circle cx="41720" cy="39500" r="196.85" /> 
</g>
<g style="fill:#FFFFFF; fill-opacity:1.0; 
stroke:#FFFFFF; stroke-width:39.3701; stroke-opacity:1; 
stroke-linecap:round; stroke-linejoin:round;">
</g>
<g style="fill:#FFFFFF; fill-opacity:1.0; 
stroke:#FFFFFF; stroke-width:0; stroke-opacity:1; 
stroke-linecap:round; stroke-linejoin:round;">
<circle cx="19768" cy="46500" r="196.85" /> 
</g>
<g style="fill:#FFFFFF; fill-opacity:1.0; 
stroke:#FFFFFF; stroke-width:39.3701; stroke-opacity:1; 
stroke-linecap:round; stroke-linejoin:round;">
</g>
<g style="fill:#FFFFFF; fill-opacity:1.0; 
stroke:#FFFFFF; stroke-width:0; stroke-opacity:1; 
stroke-linecap:round; stroke-linejoin:round;">
<circle cx="19768" cy="45500" r="196.85" /> 
</g>
<g style="fill:#FFFFFF; fill-opacity:1.0; 
stroke:#FFFFFF; stroke-width:39.3701; stroke-opacity:1; 
stroke-linecap:round; stroke-linejoin:round;">
</g>
<g style="fill:#FFFFFF; fill-opacity:1.0; 
stroke:#FFFFFF; stroke-width:0; stroke-opacity:1; 
stroke-linecap:round; stroke-linejoin:round;">
<circle cx="19768" cy="44500" r="196.85" /> 
</g>
<g style="fill:#FFFFFF; fill-opacity:1.0; 
stroke:#FFFFFF; stroke-width:39.3701; stroke-opacity:1; 
stroke-linecap:round; stroke-linejoin:round;">
</g>
<g style="fill:#FFFFFF; fill-opacity:1.0; 
stroke:#FFFFFF; stroke-width:0; stroke-opacity:1; 
stroke-linecap:round; stroke-linejoin:round;">
<circle cx="19768" cy="43500" r="196.85" /> 
</g>
<g style="fill:#FFFFFF; fill-opacity:1.0; 
stroke:#FFFFFF; stroke-width:39.3701; stroke-opacity:1; 
stroke-linecap:round; stroke-linejoin:round;">
</g>
<g style="fill:#FFFFFF; fill-opacity:1.0; 
stroke:#FFFFFF; stroke-width:0; stroke-opacity:1; 
stroke-linecap:round; stroke-linejoin:round;">
<circle cx="19768" cy="42500" r="196.85" /> 
</g>
<g style="fill:#FFFFFF; fill-opacity:1.0; 
stroke:#FFFFFF; stroke-width:39.3701; stroke-opacity:1; 
stroke-linecap:round; stroke-linejoin:round;">
</g>
<g style="fill:#FFFFFF; fill-opacity:1.0; 
stroke:#FFFFFF; stroke-width:0; stroke-opacity:1; 
stroke-linecap:round; stroke-linejoin:round;">
<circle cx="19768" cy="41500" r="196.85" /> 
</g>
<g style="fill:#FFFFFF; fill-opacity:1.0; 
stroke:#FFFFFF; stroke-width:39.3701; stroke-opacity:1; 
stroke-linecap:round; stroke-linejoin:round;">
</g>
<g style="fill:#FFFFFF; fill-opacity:1.0; 
stroke:#FFFFFF; stroke-width:0; stroke-opacity:1; 
stroke-linecap:round; stroke-linejoin:round;">
<circle cx="19768" cy="40500" r="196.85" /> 
</g>
<g style="fill:#FFFFFF; fill-opacity:1.0; 
stroke:#FFFFFF; stroke-width:39.3701; stroke-opacity:1; 
stroke-linecap:round; stroke-linejoin:round;">
</g>
<g style="fill:#FFFFFF; fill-opacity:1.0; 
stroke:#FFFFFF; stroke-width:0; stroke-opacity:1; 
stroke-linecap:round; stroke-linejoin:round;">
<circle cx="19768" cy="39500" r="196.85" /> 
</g>
<g style="fill:#FFFFFF; fill-opacity:1.0; 
stroke:#FFFFFF; stroke-width:39.3701; stroke-opacity:1; 
stroke-linecap:round; stroke-linejoin:round;">
</g>
<g style="fill:#FFFFFF; fill-opacity:1.0; 
stroke:#FFFFFF; stroke-width:0; stroke-opacity:1; 
stroke-linecap:round; stroke-linejoin:round;">
<circle cx="17270" cy="49000" r="787.401" /> 
</g>
<g style="fill:#FFFFFF; fill-opacity:1.0; 
stroke:#FFFFFF; stroke-width:39.3701; stroke-opacity:1; 
stroke-linecap:round; stroke-linejoin:round;">
</g>
<g style="fill:#FFFFFF; fill-opacity:1.0; 
stroke:#FFFFFF; stroke-width:0; stroke-opacity:1; 
stroke-linecap:round; stroke-linejoin:round;">
<circle cx="44270" cy="48500" r="787.401" /> 
</g>
<g style="fill:#FFFFFF; fill-opacity:1.0; 
stroke:#FFFFFF; stroke-width:39.3701; stroke-opacity:1; 
stroke-linecap:round; stroke-linejoin:round;">
</g>
<g style="fill:#FFFFFF; fill-opacity:1.0; 
stroke:#FFFFFF; stroke-width:0; stroke-opacity:1; 
stroke-linecap:round; stroke-linejoin:round;">
<circle cx="17270" cy="34500" r="787.401" /> 
</g>
<g style="fill:#FFFFFF; fill-opacity:1.0; 
stroke:#FFFFFF; stroke-width:39.3701; stroke-opacity:1; 
stroke-linecap:round; stroke-linejoin:round;">
</g>
<g style="fill:#FFFFFF; fill-opacity:1.0; 
stroke:#FFFFFF; stroke-width:0; stroke-opacity:1; 
stroke-linecap:round; stroke-linejoin:round;">
<circle cx="44270" cy="34500" r="787.401" /> 
</g>
<g style="fill:#FFFFFF; fill-opacity:1.0; 
stroke:#FFFFFF; stroke-width:39.3701; stroke-opacity:1; 
stroke-linecap:round; stroke-linejoin:round;">
</g>
<g style="fill:#FFFFFF; fill-opacity:1.0; 
stroke:#FFFFFF; stroke-width:0; stroke-opacity:1; 
stroke-linecap:round; stroke-linejoin:round;">
<circle cx="22820" cy="46400" r="196.85" /> 
</g>
<g style="fill:#FFFFFF; fill-opacity:1.0; 
stroke:#FFFFFF; stroke-width:39.3701; stroke-opacity:1; 
stroke-linecap:round; stroke-linejoin:round;">
</g>
<g style="fill:#FFFFFF; fill-opacity:1.0; 
stroke:#FFFFFF; stroke-width:0; stroke-opacity:1; 
stroke-linecap:round; stroke-linejoin:round;">
<circle cx="23820" cy="46400" r="196.85" /> 
</g>
<g style="fill:#FFFFFF; fill-opacity:1.0; 
stroke:#FFFFFF; stroke-width:39.3701; stroke-opacity:1; 
stroke-linecap:round; stroke-linejoin:round;">
</g>
<g style="fill:#FFFFFF; fill-opacity:1.0; 
stroke:#FFFFFF; stroke-width:0; stroke-opacity:1; 
stroke-linecap:round; stroke-linejoin:round;">
<circle cx="24820" cy="46400" r="196.85" /> 
</g>
<g style="fill:#FFFFFF; fill-opacity:1.0; 
stroke:#FFFFFF; stroke-width:39.3701; stroke-opacity:1; 
stroke-linecap:round; stroke-linejoin:round;">
</g>
<g style="fill:#FFFFFF; fill-opacity:1.0; 
stroke:#FFFFFF; stroke-width:0; stroke-opacity:1; 
stroke-linecap:round; stroke-linejoin:round;">
<circle cx="25820" cy="46400" r="196.85" /> 
</g>
<g style="fill:#FFFFFF; fill-opacity:1.0; 
stroke:#FFFFFF; stroke-width:39.3701; stroke-opacity:1; 
stroke-linecap:round; stroke-linejoin:round;">
</g>
<g style="fill:#FFFFFF; fill-opacity:1.0; 
stroke:#FFFFFF; stroke-width:0; stroke-opacity:1; 
stroke-linecap:round; stroke-linejoin:round;">
<circle cx="41820" cy="36900" r="196.85" /> 
</g>
<g style="fill:#FFFFFF; fill-opacity:1.0; 
stroke:#FFFFFF; stroke-width:39.3701; stroke-opacity:1; 
stroke-linecap:round; stroke-linejoin:round;">
</g>
<g style="fill:#FFFFFF; fill-opacity:1.0; 
stroke:#FFFFFF; stroke-width:0; stroke-opacity:1; 
stroke-linecap:round; stroke-linejoin:round;">
<circle cx="40820" cy="36900" r="196.85" /> 
</g>
<g style="fill:#FFFFFF; fill-opacity:1.0; 
stroke:#FFFFFF; stroke-width:39.3701; stroke-opacity:1; 
stroke-linecap:round; stroke-linejoin:round;">
</g>
<g style="fill:#FFFFFF; fill-opacity:1.0; 
stroke:#FFFFFF; stroke-width:0; stroke-opacity:1; 
stroke-linecap:round; stroke-linejoin:round;">
<circle cx="39820" cy="36900" r="196.85" /> 
</g>
<g style="fill:#FFFFFF; fill-opacity:1.0; 
stroke:#FFFFFF; stroke-width:39.3701; stroke-opacity:1; 
stroke-linecap:round; stroke-linejoin:round;">
</g>
<g style="fill:#FFFFFF; fill-opacity:1.0; 
stroke:#FFFFFF; stroke-width:0; stroke-opacity:1; 
stroke-linecap:round; stroke-linejoin:round;">
<circle cx="38820" cy="36900" r="196.85" /> 
</g>
<g style="fill:#FFFFFF; fill-opacity:1.0; 
stroke:#FFFFFF; stroke-width:39.3701; stroke-opacity:1; 
stroke-linecap:round; stroke-linejoin:round;">
</g>
<g style="fill:#000000; fill-opacity:1.0; 
stroke:#000000; stroke-width:39.3701; stroke-opacity:1; 
stroke-linecap:round; stroke-linejoin:round;">
</g> 
</svg>
